<svg width="60" height="60" viewBox="0 0 60 60" fill="none" xmlns="http://www.w3.org/2000/svg">
<path d="M44.4917 12.4243C43.974 12.4243 43.5542 12.005 43.5542 11.4868L43.5542 8.67432C43.5542 8.15613 43.974 7.73682 44.4917 7.73682C45.0094 7.73682 45.4292 8.15613 45.4292 8.67432L45.4292 11.4868C45.4292 12.005 45.0094 12.4243 44.4917 12.4243Z" fill="#196164"/>
<path d="M39.8478 13.3617C39.5237 13.3617 39.2088 13.1942 39.0348 12.893L37.6286 10.4577C37.3699 10.009 37.5233 9.43593 37.9719 9.17683C38.4196 8.91774 38.9927 9.07063 39.2527 9.52016L40.659 11.9555C41.0284 12.5564 40.5462 13.3796 39.8478 13.3617Z" fill="#196164"/>
<path d="M39.8478 13.3617C39.5237 13.3617 39.2088 13.1942 39.0348 12.893L37.6286 10.4577C37.3699 10.009 37.5233 9.43593 37.9719 9.17683C38.4196 8.91774 38.9927 9.07063 39.2527 9.52016L40.659 11.9555C41.0284 12.5564 40.5462 13.3796 39.8478 13.3617Z" fill="#196164"/>
<path d="M49.1357 13.3618C48.4376 13.3792 47.9547 12.5569 48.3245 11.9555C48.3245 11.9555 49.7307 9.52024 49.7307 9.52024C50.364 8.46269 51.953 9.38006 51.3549 10.4578C51.3549 10.4577 49.9486 12.893 49.9486 12.893C49.7747 13.1943 49.4598 13.3618 49.1357 13.3618Z" fill="#196164"/>
<path d="M26.7218 39.6118L24.8468 39.6118C22.9997 39.5787 22.9981 36.8324 24.8469 36.7993L29.0656 36.7993C30.2963 36.7797 30.2988 34.9446 29.0655 34.9243L26.2531 34.9243L26.2531 33.0493C26.2531 32.5311 25.8333 32.1118 25.3156 32.1118C24.7978 32.1118 24.3781 32.5311 24.3781 33.0493L24.3781 34.9717C20.4029 35.6088 20.8044 41.4096 24.8469 41.4868L26.7218 41.4868C27.4973 41.4868 28.1281 42.1176 28.1281 42.8931C28.1281 43.6685 27.4973 44.2993 26.7218 44.2993L22.5031 44.2993C21.2722 44.3185 21.27 46.1544 22.5031 46.1743L24.3781 46.1743L24.3781 48.0493C24.3781 48.5675 24.7978 48.9868 25.3156 48.9868C25.8333 48.9868 26.2531 48.5675 26.2531 48.0493L26.2531 46.1743C30.893 46.5241 31.3586 39.8393 26.7218 39.6118Z" fill="#196164"/>
<path d="M33.4922 25.4865C37.6751 25.156 37.4805 19.5468 33.2842 19.4556L17.3468 19.4556C13.1586 19.5446 12.9483 25.1541 17.1389 25.4865C1.69256 35.6538 2.13101 58.4951 25.3155 58.3616C48.5026 58.4953 48.936 35.6499 33.4922 25.4865ZM25.3155 56.6448C22.8833 56.6448 20.4058 56.3355 18.12 55.6617C20.9629 52.0396 19.6784 46.2669 15.9404 44.2993C14.7964 43.4938 10.941 43.3537 8.45303 43.3056C8.67647 36.1004 14.0905 27.8101 21.3633 25.5059L29.2678 25.5059C36.696 27.8593 42.1906 36.4588 42.1906 43.7669C42.1906 53.2618 33.4734 56.6448 25.3155 56.6448Z" fill="#196164"/>
<path d="M17.3468 18.4746L33.2843 18.4746C37.0492 18.4312 37.7931 13.1862 34.2177 12.1062C36.0079 9.96762 36.0146 6.48558 34.1068 4.63674C32.5285 2.97073 29.2797 2.8904 27.8121 4.72194C25.5501 0.0862546 19.064 0.880796 17.7079 5.73835C14.848 6.34228 14.565 10.0501 16.1759 12.1796C12.8249 13.464 13.7214 18.4464 17.3468 18.4746ZM17.3175 8.10842C17.6163 7.65295 18.266 7.36296 18.7425 7.62317C22.0755 9.70236 26.7744 8.95254 29.2175 5.95419C29.5668 5.52481 30.1184 5.2712 30.7716 5.23733C34.4961 5.20668 34.396 10.2521 31.7185 11.9555L18.3122 11.9555C17.453 10.9563 16.5925 9.25138 17.3175 8.10842Z" fill="#196164"/>
<path d="M49.6907 15.2368L30.0032 15.2368C27.9355 15.2368 26.2532 16.9186 26.2532 18.9868L26.2532 30.2368C26.2532 32.305 27.9354 33.9868 30.0032 33.9868L33.7014 33.9868C33.5522 34.6826 33.1164 35.2759 32.5721 35.4224C32.1995 35.5231 31.9262 35.8417 31.8837 36.2253C31.8415 36.6089 32.0388 36.9797 32.3812 37.1582C35.2365 38.7092 38.8652 37.039 39.8881 33.9868L49.6907 33.9868C51.7584 33.9868 53.4407 32.305 53.4407 30.2368L53.4407 18.9868C53.4407 16.9187 51.7584 15.2368 49.6907 15.2368Z" fill="#C4F500"/>
<path d="M46.8782 21.7993L32.8157 21.7993C32.2979 21.7993 31.8782 21.38 31.8782 20.8618C31.8782 20.3436 32.2979 19.9243 32.8157 19.9243L46.8782 19.9243C48.1061 19.9436 48.1139 21.7784 46.8782 21.7993Z" fill="#196164"/>
<path d="M46.8782 25.5493L32.8157 25.5493C32.2979 25.5493 31.8782 25.13 31.8782 24.6118C31.8782 24.0936 32.2979 23.6743 32.8157 23.6743L46.8782 23.6743C48.1061 23.6936 48.1139 25.5284 46.8782 25.5493Z" fill="#196164"/>
<path d="M46.8781 29.2993L38.4406 29.2993C37.2108 29.2795 37.2063 27.445 38.4406 27.4243L46.8781 27.4243C48.1079 27.4441 48.1124 29.2786 46.8781 29.2993Z" fill="#196164"/>
</svg>
