<svg width="54" height="56" viewBox="0 0 54 56" fill="none" xmlns="http://www.w3.org/2000/svg">
<path d="M31.1968 18.3619C32.1972 18.3619 33.0456 18.5956 33.75 18.9864V11.248C33.75 10.2125 32.9106 9.37305 31.875 9.37305H30C28.9645 9.37305 28.125 10.2125 28.125 11.248V19.3188C28.9154 18.7266 29.9388 18.3619 31.1968 18.3619Z" fill="#196164"/>
<path d="M23.4774 21.354C23.793 21.354 24.0888 21.3838 24.375 21.4273V15.9355C24.375 14.9 23.5356 14.0605 22.5 14.0605H20.625C19.5895 14.0605 18.75 14.9 18.75 15.9355V24.373C18.75 24.4363 18.7625 24.4961 18.7686 24.5577C19.4309 22.7684 20.9984 21.354 23.4774 21.354Z" fill="#196164"/>
<path d="M46.875 -0.00195312H13.125C10.5915 -0.00195312 8.4482 1.68331 7.74651 3.99043C5.43668 4.69058 3.75 6.83755 3.75 9.37305V15.9355H2.8125C1.26159 15.9355 0 17.1971 0 18.748C0 20.299 1.26159 21.5605 2.8125 21.5605H3.75V33.5292H2.8125C1.26159 33.5292 0 34.7908 0 36.3417C0 37.8926 1.26159 39.1542 2.8125 39.1542H3.75V46.873C3.75 49.9748 6.2732 52.498 9.375 52.498H30.9375C28.0661 52.498 25.3024 51.8373 22.7917 50.623H9.375C7.30728 50.623 5.625 48.9412 5.625 46.873V41.6088L7.17956 42.3861C8.96154 43.3495 11.3158 41.8984 11.25 39.8701C11.25 39.8702 11.25 32.8133 11.25 32.8133C11.3146 30.7869 8.96439 29.3323 7.17953 30.2975C7.17956 30.2974 5.625 31.0747 5.625 31.0747V24.0151L7.17956 24.7924C8.96154 25.7558 11.3158 24.3047 11.25 22.2764C11.25 22.2765 11.25 15.2196 11.25 15.2196C11.3146 13.1932 8.96439 11.7386 7.17953 12.7038C7.17956 12.7037 5.625 13.481 5.625 13.481V9.37305C5.625 7.30487 7.30728 5.62305 9.375 5.62305H43.125C45.1927 5.62305 46.875 7.30487 46.875 9.37305V23.8719C50.1579 29.1712 50.6103 35.8384 47.9448 41.5996C48.9116 42.175 51.5814 43.4933 52.3738 44.2479C52.4486 43.883 52.5 43.5099 52.5 43.123V5.62305C52.5 2.52124 49.9768 -0.00195312 46.875 -0.00195312ZM2.8125 19.6855C1.58029 19.6636 1.58078 17.8322 2.81254 17.8105C2.8125 17.8105 3.75 17.8105 3.75 17.8105V19.6855H2.8125ZM2.8125 37.2792C1.58029 37.2573 1.58078 35.4259 2.81254 35.4042C2.8125 35.4042 3.75 35.4042 3.75 35.4042V37.2792H2.8125Z" fill="#196164"/>
<path d="M38.7932 50.7622C36.3345 51.902 33.653 52.498 30.9375 52.498H39.7574L38.7932 50.7622Z" fill="#196164"/>
<path d="M53.1555 49.3186C52.8969 47.472 51.8138 45.8936 50.1842 44.9891L45.4338 42.3498C52.0806 31.4188 43.9849 16.7464 30.9373 16.8734C16.0231 16.8123 8.42872 35.1535 19.0052 45.6804C24.2419 51.1021 33.1609 52.187 39.5421 48.2493L42.1779 52.9945C45.3321 58.6367 54.0329 55.7307 53.1555 49.3186ZM39.5553 42.3661C35.0193 47.0937 26.8556 47.0945 22.3197 42.3659C14.6749 34.8189 20.2005 21.4704 30.9377 21.5608C41.6745 21.4715 47.2009 34.8192 39.5553 42.3661Z" fill="#C4F500"/>
</svg>
