<svg width="45" height="45" viewBox="0 0 45 45" fill="none" xmlns="http://www.w3.org/2000/svg">
<g clip-path="url(#clip0_4061_766)">
<path d="M28.6063 15.5511L25.1268 15.0458L23.5706 11.8921C23.4992 11.7474 23.3887 11.6256 23.2517 11.5405C23.1147 11.4553 22.9566 11.4102 22.7953 11.4102C22.634 11.4102 22.4759 11.4553 22.3389 11.5405C22.2019 11.6256 22.0915 11.7474 22.0201 11.8921L20.4638 15.0458L16.9834 15.5511C16.8237 15.5741 16.6736 15.6414 16.5501 15.7453C16.4266 15.8492 16.3347 15.9856 16.2847 16.1391C16.2347 16.2925 16.2287 16.4569 16.2673 16.6136C16.3059 16.7703 16.3876 16.913 16.5031 17.0257L19.0209 19.4802L18.4263 22.9461C18.405 23.0702 18.4111 23.1974 18.4442 23.3189C18.4772 23.4404 18.5363 23.5532 18.6175 23.6494C18.6987 23.7457 18.7998 23.823 18.914 23.8761C19.0282 23.9292 19.1525 23.9567 19.2784 23.9567C19.419 23.9556 19.5571 23.9204 19.681 23.8539L22.7935 22.2208L25.906 23.8539C26.0486 23.9294 26.2094 23.9636 26.3704 23.9525C26.5314 23.9414 26.6861 23.8854 26.817 23.791C26.9478 23.6965 27.0496 23.5673 27.1109 23.418C27.1721 23.2687 27.1903 23.1053 27.1635 22.9461L26.5688 19.4802L29.0867 17.0257C29.2229 16.8928 29.3115 16.7187 29.3387 16.5303C29.4067 16.0576 29.0789 15.6192 28.6063 15.5511ZM25.0346 18.5521C24.9337 18.6503 24.8583 18.7716 24.815 18.9055C24.7716 19.0395 24.7616 19.182 24.7858 19.3206L25.1605 21.508L23.196 20.4753C23.0713 20.411 22.9329 20.3781 22.7926 20.3793C22.6524 20.3804 22.5145 20.4157 22.3909 20.482L20.4265 21.5148L20.8021 19.3274C20.8263 19.1887 20.8163 19.0462 20.773 18.9123C20.7296 18.7783 20.6542 18.657 20.5533 18.5588L18.9644 17.0093L21.1603 16.6904C21.2991 16.6703 21.4309 16.6168 21.5443 16.5345C21.6578 16.4521 21.7495 16.3435 21.8117 16.2178L22.7935 14.2274L23.7753 16.2178C23.8374 16.3435 23.9291 16.4522 24.0426 16.5345C24.1561 16.6168 24.2878 16.6703 24.4266 16.6904L26.6236 17.0036L25.0346 18.5521Z" fill="#196164"/>
<path d="M22.79 6.62109C16.5763 6.62109 11.5391 11.6583 11.5391 17.872C11.5391 24.0857 16.5763 29.123 22.79 29.123C29.0009 29.1161 34.0341 24.0829 34.0409 17.872C34.0409 11.6583 29.0037 6.62109 22.79 6.62109ZM22.79 27.3938C17.5313 27.3938 13.2682 23.1308 13.2682 17.872C13.2682 12.6133 17.5313 8.35023 22.79 8.35023C28.0464 8.35608 32.306 12.6157 32.3118 17.872C32.3118 23.1309 28.0487 27.3938 22.79 27.3938Z" fill="#196164"/>
<path d="M38.6304 20.2043L37.0127 20.8163C37.2644 21.4819 37.5776 22.3101 37.47 22.6415C37.3489 23.0142 36.616 23.4917 35.9684 23.9133C35.1999 24.4148 34.3257 24.9835 33.7253 25.8096C33.1249 26.6358 32.8416 27.6588 32.5985 28.5522C32.4064 29.2545 32.1701 30.1287 31.8636 30.3515C31.5572 30.5744 30.6695 30.5254 29.9424 30.4908C29.0135 30.4466 27.9605 30.3947 26.9702 30.7194C26.0095 31.0307 25.2113 31.6801 24.5042 32.2497C23.8981 32.7397 23.2102 33.2949 22.7963 33.2949C22.3823 33.2949 21.6944 32.7397 21.0873 32.2479C20.3803 31.6763 19.5792 31.0288 18.6224 30.7186C18.0748 30.5408 17.4609 30.4583 16.6896 30.4583C16.3332 30.4583 15.9845 30.4746 15.6483 30.4909C14.9269 30.5255 14.0296 30.5678 13.7328 30.3516C13.436 30.1355 13.1891 29.2527 12.997 28.5504C12.754 27.656 12.4792 26.6435 11.8711 25.8078C11.263 24.972 10.3975 24.4138 9.62701 23.9115C8.98055 23.4898 8.24754 23.0123 8.12647 22.6396C8.01885 22.3102 8.33301 21.4812 8.58473 20.8144C8.9181 19.9335 9.29461 18.9354 9.29461 17.8729C9.29461 16.8105 8.91703 15.8124 8.58375 14.9315C8.33203 14.2658 8.01885 13.4367 8.12549 13.1062C8.24657 12.7335 8.97947 12.256 9.62701 11.8334C10.3955 11.3319 11.2687 10.7632 11.8701 9.93811C12.4715 9.11291 12.7539 8.08887 12.997 7.19547C13.1891 6.4932 13.4254 5.61903 13.7318 5.39619C14.0383 5.17335 14.9259 5.22233 15.6483 5.25687C16.5772 5.30106 17.6311 5.35297 18.6263 5.02827C19.5869 4.71704 20.3842 4.06765 21.0922 3.49798C21.6936 3.00615 22.3814 2.45179 22.7954 2.45179C23.2093 2.45179 23.8973 3.00606 24.5033 3.49788C25.2104 4.06941 26.0115 4.71695 26.9693 5.02818C27.9606 5.34994 29.0144 5.29999 29.9472 5.25677C30.6686 5.22311 31.5659 5.18086 31.8627 5.39609C32.1595 5.61132 32.4017 6.49213 32.5938 7.19538C32.8368 8.08975 33.1116 9.10227 33.7197 9.93801C34.3278 10.7737 35.1933 11.3329 35.9638 11.8343C36.6103 12.2559 37.3432 12.7334 37.4653 13.1061C37.5729 13.4366 37.2587 14.2656 37.007 14.9314C36.6736 15.8123 36.2962 16.8113 36.2962 17.8728C36.2962 18.9343 36.6737 19.9334 37.007 20.8143L37.8158 20.5088L38.6246 20.2034C38.3162 19.3888 38.0252 18.6193 38.0252 17.8728C38.0252 17.1264 38.3134 16.357 38.6237 15.5423C39.0243 14.4856 39.4037 13.4798 39.1087 12.5721C38.7985 11.6182 37.8369 10.9918 36.907 10.3856C36.2346 9.94474 35.5314 9.48941 35.1174 8.92071C34.7033 8.352 34.4757 7.52875 34.2615 6.74199C33.9588 5.62956 33.6735 4.5786 32.8753 3.99838C32.077 3.41817 31.0058 3.47583 29.8608 3.52959C29.0414 3.56803 28.1931 3.60832 27.5025 3.38353C26.8493 3.17123 26.2085 2.65346 25.5898 2.15295C24.7165 1.4499 23.8212 0.722656 22.7953 0.722656C21.7694 0.722656 20.874 1.4499 19.9999 2.15402C19.3812 2.65453 18.7405 3.17133 18.0872 3.38363C17.3966 3.60744 16.5857 3.56998 15.7289 3.52968C14.5838 3.47593 13.5022 3.425 12.7135 3.99848C11.9247 4.57196 11.6299 5.63152 11.3273 6.74297C11.113 7.52973 10.8921 8.34342 10.4713 8.92168C10.0505 9.49995 9.3589 9.94572 8.68171 10.3866C7.75182 10.9928 6.79022 11.6191 6.47997 12.573C6.18503 13.4809 6.56446 14.4828 6.96506 15.5443C7.27248 16.3589 7.56352 17.1283 7.56352 17.8738C7.56352 18.6193 7.27531 19.3887 6.96506 20.2043C6.56446 21.2611 6.18503 22.2678 6.47997 23.1746C6.79022 24.1294 7.75182 24.7558 8.68171 25.362C9.35412 25.8029 10.0574 26.2582 10.4704 26.8269C10.8834 27.3956 11.112 28.2189 11.3263 29.0056C11.5107 29.6857 11.6904 30.3428 11.9844 30.8836L8.48189 39.8406C8.42758 39.9798 8.41024 40.1306 8.43157 40.2785C8.4529 40.4263 8.51216 40.5661 8.60359 40.6842C8.69502 40.8024 8.81549 40.8948 8.95326 40.9525C9.09103 41.0102 9.24141 41.0313 9.38973 41.0136L14.2889 40.4276L17.4889 44.1798C17.5861 44.2937 17.7113 44.3803 17.8521 44.4313C17.9929 44.4822 18.1445 44.4957 18.2921 44.4704C18.4397 44.4451 18.5782 44.382 18.694 44.2871C18.8099 44.1922 18.8991 44.0688 18.9529 43.9291L22.4448 34.9952C22.6773 35.0339 22.9146 35.0339 23.1471 34.9952L26.6381 43.9291C26.6925 44.0683 26.7821 44.191 26.8981 44.2852C27.0141 44.3794 27.1525 44.442 27.2999 44.4668C27.4473 44.4916 27.5985 44.4777 27.739 44.4266C27.8794 44.3754 28.0042 44.2888 28.1011 44.175L31.3011 40.4228L36.2003 41.0088C36.3481 41.0263 36.4979 41.0053 36.6352 40.9479C36.7726 40.8904 36.8928 40.7985 36.9842 40.6811C37.0756 40.5636 37.1351 40.4245 37.157 40.2773C37.1788 40.13 37.1623 39.9796 37.1091 39.8406L33.6052 30.8818C33.8992 30.341 34.0778 29.6839 34.2633 29.0038C34.4766 28.217 34.6975 27.4033 35.1192 26.8251C35.5409 26.2468 36.2317 25.801 36.9089 25.3601C37.8388 24.754 38.8013 24.1276 39.1106 23.1737C39.4055 22.2659 39.0271 21.2649 38.6304 20.2043ZM17.8643 41.9589L15.3022 38.953C15.2097 38.8447 15.0918 38.7609 14.9591 38.7091C14.8264 38.6573 14.6829 38.6391 14.5414 38.6562L10.6182 39.126L13.3743 32.0769C14.0611 32.2959 14.8767 32.2574 15.7278 32.2172C16.0448 32.2017 16.3724 32.1864 16.6884 32.1864C17.2725 32.1864 17.7173 32.2421 18.0871 32.3622C18.7403 32.5745 19.3801 33.0913 19.9998 33.5928C20.288 33.8243 20.5762 34.0578 20.872 34.2652L17.8643 41.9589ZM34.9722 39.126L31.0499 38.6562C30.9084 38.6393 30.7649 38.6576 30.6321 38.7096C30.4994 38.7615 30.3816 38.8455 30.2891 38.954L27.7261 41.9598L24.7164 34.2671C25.0123 34.0577 25.3024 33.8242 25.5887 33.5947C26.2073 33.0942 26.848 32.5774 27.5013 32.3651C28.1911 32.1412 29.0009 32.1787 29.8606 32.219C30.7203 32.2594 31.5273 32.2968 32.2142 32.0787L34.9722 39.126Z" fill="#196164"/>
</g>
<defs>
<clipPath id="clip0_4061_766">
<rect width="43.7601" height="43.7601" fill="white" transform="translate(0.90625 0.726562)"/>
</clipPath>
</defs>
</svg>
