<svg width="13" height="11" viewBox="0 0 13 11" fill="none" xmlns="http://www.w3.org/2000/svg">
<path d="M6.72656 5.14844C7.08203 5.47656 7.08203 6.05078 6.72656 6.37891L2.35156 10.7539C2.1875 10.918 1.96875 11 1.75 11C1.50391 11 1.28516 10.918 1.12109 10.7539C0.765625 10.4258 0.765625 9.85156 1.12109 9.52344L4.86719 5.75L1.12109 2.00391C0.765625 1.67578 0.765625 1.10156 1.12109 0.773438C1.44922 0.417969 2.02344 0.417969 2.35156 0.773438L6.72656 5.14844ZM11.9766 5.14844C12.332 5.47656 12.332 6.05078 11.9766 6.37891L7.60156 10.7539C7.4375 10.918 7.21875 11 7 11C6.75391 11 6.53516 10.918 6.37109 10.7539C6.01562 10.4258 6.01562 9.85156 6.37109 9.52344L10.1172 5.75L6.37109 2.00391C6.01562 1.67578 6.01562 1.10156 6.37109 0.773438C6.69922 0.417969 7.27344 0.417969 7.60156 0.773438L11.9766 5.14844Z" fill="#196164"/>
</svg>
