<svg width="55" height="55" viewBox="0 0 55 55" fill="none" xmlns="http://www.w3.org/2000/svg">
<path d="M38.2816 38.2487C37.3354 36.6101 35.8084 35.4381 33.981 34.9484C32.1532 34.4587 30.2447 34.7105 28.6066 35.6563L25.475 37.464C24.313 38.135 22.854 37.8139 22.0811 36.7167C19.0414 32.4005 16.3756 27.7826 14.1571 22.9918C13.5935 21.7741 14.0446 20.3499 15.2069 19.679L17.3155 18.4617C17.3155 18.4612 17.3155 18.4612 17.3155 18.4612L18.3381 17.8713C19.9767 16.9255 21.1487 15.3981 21.6384 13.5706C22.1277 11.7432 21.8767 9.83436 20.9305 8.19618L18.245 3.54389C16.2921 0.161784 11.952 -1.00139 8.56946 0.951501C5.06944 2.97195 2.38683 6.17866 1.01553 9.98038C-0.35578 13.7821 -0.337736 17.9627 1.0663 21.7523C4.70144 31.5625 9.93069 40.6199 16.6089 48.6732C19.1887 51.7838 22.8003 53.8899 26.7783 54.6032C27.7799 54.7828 28.7899 54.8714 29.7974 54.8714C32.791 54.8714 35.756 54.0875 38.3748 52.5756C40.013 51.6298 41.1854 50.1024 41.6747 48.275C42.1644 46.4476 41.913 44.5387 40.9672 42.9005L38.2816 38.2487ZM18.2588 47.3048C11.735 39.4383 6.62705 30.5907 3.07626 21.0075C0.527932 14.1295 3.28859 6.47533 9.64116 2.80746C10.417 2.35973 11.2651 2.14699 12.1026 2.14699C13.8109 2.14699 15.4747 3.0328 16.3886 4.61559L19.0741 9.26746C20.4362 11.6261 19.6251 14.6528 17.2664 16.0149L17.172 16.0694L13.0442 8.92001C12.7484 8.40766 12.093 8.23184 11.5802 8.52767C11.0674 8.82392 10.892 9.47936 11.1879 9.99171L15.3156 17.1411L14.1348 17.8226C12.0057 19.0516 11.1791 21.6612 12.2121 23.8923C14.4844 28.7993 17.2152 33.5292 20.3288 37.9507C21.7442 39.9603 24.4171 40.5494 26.5467 39.3204L27.7275 38.6385L35.268 51.7003C29.317 54.0409 22.4533 52.3625 18.2588 47.3048ZM37.3031 50.7192C37.2716 50.7377 37.2397 50.7549 37.2078 50.773L29.5834 37.5668L29.6783 37.5122C30.8209 36.8526 32.1519 36.6772 33.4263 37.0188C34.7006 37.3603 35.7656 38.1778 36.4253 39.3204L39.1112 43.9722C40.4729 46.3309 39.6618 49.3576 37.3031 50.7192Z" fill="#196164"/>
<path d="M11.3582 6.28654C11.3582 6.00498 11.2437 5.72845 11.0444 5.52914C10.8451 5.3294 10.5694 5.21484 10.2865 5.21484C10.005 5.21484 9.72845 5.3294 9.52914 5.52914C9.32982 5.72845 9.21484 6.00498 9.21484 6.28654C9.21484 6.56853 9.3294 6.84505 9.52914 7.04437C9.72845 7.24369 10.005 7.35824 10.2865 7.35824C10.5698 7.35824 10.8451 7.24369 11.0444 7.04437C11.2437 6.84505 11.3582 6.56853 11.3582 6.28654Z" fill="#196164"/>
<path d="M24.6498 28.5085H29.1666C29.7582 28.5085 30.2383 28.0284 30.2383 27.4364C30.2383 26.8447 29.7582 26.3647 29.1666 26.3647H25.7215V25.3832C25.7215 24.8423 26.1617 24.4021 26.7026 24.4021H27.1134C28.8363 24.4021 30.2383 23.0002 30.2383 21.2772C30.2383 19.5539 28.8363 18.1523 27.1134 18.1523H24.6498C24.0577 18.1523 23.5781 18.632 23.5781 19.224C23.5781 19.8157 24.0577 20.2957 24.6498 20.2957H27.1134C27.6547 20.2957 28.0949 20.7359 28.0949 21.2772C28.0949 21.8185 27.6547 22.2587 27.1134 22.2587H26.7026C24.9796 22.2587 23.5781 23.6602 23.5781 25.3832V27.4364C23.5781 28.0284 24.0577 28.5085 24.6498 28.5085Z" fill="#196164"/>
<path d="M32.8061 17.7891C32.214 17.7891 31.7344 18.2691 31.7344 18.8608V21.9567C31.7344 23.3314 32.8527 24.4496 34.2273 24.4496H36.2511V27.4348C36.2511 28.0264 36.7312 28.5065 37.3228 28.5065C37.9145 28.5065 38.3945 28.0264 38.3945 27.4348V18.8608C38.3945 18.2691 37.9145 17.7891 37.3228 17.7891C36.7312 17.7891 36.2511 18.2691 36.2511 18.8608V22.3058H34.2273C34.0343 22.3058 33.8778 22.1493 33.8778 21.9567V18.8608C33.8778 18.2691 33.3977 17.7891 32.8061 17.7891Z" fill="#196164"/>
<path d="M46.4883 27.4344V25.176C46.4883 23.3397 44.9944 21.8459 43.1582 21.8459C42.7403 21.8459 42.3404 21.924 41.9715 22.0654V18.8612C41.9715 18.2691 41.4915 17.7891 40.8998 17.7891C40.3082 17.7891 39.8281 18.2691 39.8281 18.8612V27.4348C39.8281 28.0264 40.3082 28.5065 40.8998 28.5065C41.4915 28.5065 41.9715 28.0264 41.9715 27.4348V25.176C41.9715 24.5218 42.504 23.9893 43.1582 23.9893C43.8124 23.9893 44.3449 24.5218 44.3449 25.176V27.4344C44.3449 28.0264 44.8249 28.5065 45.4166 28.5065C46.0087 28.5065 46.4883 28.0264 46.4883 27.4344Z" fill="#196164"/>
<path d="M27.5639 2.1434L27.6931 2.14382H27.6982C28.2877 2.14382 28.7673 1.66714 28.7699 1.07715C28.7728 0.485076 28.2949 0.00293734 27.7032 0.000419591L27.5639 0C26.9722 0 26.4922 0.479621 26.4922 1.0717C26.4922 1.66336 26.9718 2.1434 27.5639 2.1434Z" fill="#196164"/>
<path d="M48.398 9.58633C44.1884 4.67682 38.3742 1.40088 32.0262 0.361909C31.4409 0.266236 30.8908 0.662354 30.7955 1.24604C30.6998 1.83015 31.0959 2.38152 31.6801 2.47677C43.9492 4.48548 52.8543 14.9822 52.8543 27.436C52.8543 34.1918 50.2233 40.5435 45.4464 45.3204C45.0276 45.7388 45.0276 46.4173 45.4464 46.8361C45.6558 47.0455 45.9298 47.15 46.2042 47.15C46.4782 47.15 46.7527 47.0455 46.9621 46.8361C52.1439 41.6543 54.9977 34.7646 54.9977 27.436C54.9977 20.8891 52.6537 14.55 48.398 9.58633Z" fill="#196164"/>
</svg>
