<svg width="24" height="24" viewBox="0 0 24 24" fill="none" xmlns="http://www.w3.org/2000/svg">
<path d="M19.7684 16.125C18.6442 16.0589 17.756 15.5645 17.3826 14.625H10.875C9.63428 14.625 8.625 13.6157 8.625 12.375V5.25C8.625 4.00928 9.63428 3 10.875 3H21C22.2407 3 23.25 4.00928 23.25 5.25V12.375C23.25 13.6157 22.2407 14.625 21 14.625H19.7472C19.7003 14.9454 19.8003 15.2585 20.0295 15.4808C20.2721 15.7006 20.0948 16.1362 19.7684 16.125ZM10.875 3.75C10.0477 3.75 9.375 4.42273 9.375 5.25V12.375C9.375 13.2023 10.0477 13.875 10.875 13.875H17.6624C17.8392 13.875 17.9923 13.9988 18.0289 14.1716C18.1427 14.6917 18.5238 15.0344 19.0415 15.2271C18.9505 14.867 18.9094 13.9087 19.4597 13.875C19.4597 13.875 21 13.875 21 13.875C21.8273 13.875 22.5 13.2023 22.5 12.375V5.25C22.5 4.42273 21.8273 3.75 21 3.75H10.875Z" fill="#196164"/>
<path d="M19.875 6H17.625C16.7966 6 16.125 6.67157 16.125 7.5V9.75C16.125 10.5784 16.7966 11.25 17.625 11.25H19.875C20.7034 11.25 21.375 10.5784 21.375 9.75V7.5C21.375 6.67157 20.7034 6 19.875 6Z" fill="#196164"/>
<path d="M13.125 7.875H3C1.75928 7.875 0.75 8.88428 0.75 10.125V17.25C0.75 18.4907 1.75928 19.5 3 19.5H4.25281C4.29968 19.8204 4.19971 20.1335 3.97046 20.3558C3.85803 20.465 3.82507 20.6323 3.88806 20.7759C3.95072 20.9191 4.09785 21.0088 4.25317 20.9993C5.37347 20.9245 6.24422 20.4341 6.61743 19.5H13.125C14.3657 19.5 15.375 18.4907 15.375 17.25V10.125C15.375 8.88428 14.3657 7.875 13.125 7.875ZM5.25 16.125C3.80273 16.125 2.625 14.9473 2.625 13.5C2.75718 10.0224 7.74335 10.0234 7.875 13.5C7.875 14.9473 6.69727 16.125 5.25 16.125Z" fill="#196164"/>
<path d="M13.5 11.2501H8.625C8.41773 11.2501 8.25 11.0823 8.25 10.8751C8.25 10.6678 8.41773 10.5001 8.625 10.5001H12.5947L12.1099 10.0152C11.7648 9.66735 12.2917 9.13939 12.6402 9.48494C12.6401 9.48492 13.7651 10.6099 13.7651 10.6099C14.0019 10.8312 13.8243 11.2611 13.5 11.2501Z" fill="#C4F500"/>
<path d="M9.7498 13.875C9.65385 13.875 9.55791 13.8383 9.48467 13.7651L8.35967 12.6401C8.12314 12.4188 8.30039 11.9889 8.62482 12C8.6248 12 13.4998 12 13.4998 12C13.991 12.0077 13.9941 12.7416 13.4998 12.75H9.53007L10.0149 13.2348C10.2541 13.4576 10.0705 13.8863 9.7498 13.875Z" fill="#C4F500"/>
</svg>
