<svg width="24" height="24" viewBox="0 0 24 24" fill="none" xmlns="http://www.w3.org/2000/svg">
<path d="M10.5 15.2974C10.5 14.1583 11.4234 13.2349 12.5625 13.2349H17.4375C20.1664 13.3286 20.1682 17.2656 17.4375 17.3599H12.5625C11.4234 17.3599 10.5 16.4365 10.5 15.2974Z" fill="#196164"/>
<path d="M17.4372 17.7349H12.5622C9.33426 17.6129 9.33262 12.9824 12.5622 12.8599C12.5622 12.8599 17.4372 12.8599 17.4372 12.8599C20.6651 12.9818 20.6667 17.6123 17.4372 17.7349ZM12.5622 13.6099C10.3334 13.6801 10.3313 16.914 12.5622 16.9849C12.5622 16.9849 17.4372 16.9849 17.4372 16.9849C19.6659 16.9146 19.668 13.6807 17.4371 13.6099H12.5622Z" fill="#196164"/>
<path d="M20.625 4.6099C20.6345 4.1173 21.3655 4.11737 21.375 4.60992C21.3655 5.10251 20.6345 5.10244 20.625 4.6099ZM19.125 4.6099C19.1345 4.1173 19.8655 4.11737 19.875 4.60992C19.8655 5.10251 19.1345 5.10244 19.125 4.6099ZM17.625 4.6099C17.6345 4.1173 18.3655 4.11737 18.375 4.60992C18.3655 5.10251 17.6345 5.10244 17.625 4.6099Z" fill="#196164"/>
<path d="M10.1251 6.10986H8.62515C7.14212 6.14858 7.14162 8.32112 8.62518 8.35986H10.1251C11.6082 8.32115 11.6087 6.14861 10.1251 6.10986Z" fill="#196164"/>
<path d="M14.6251 6.10986H13.1251C11.6421 6.14858 11.6416 8.32112 13.1252 8.35986H14.6251C16.1082 8.32115 16.1087 6.14861 14.6251 6.10986Z" fill="#196164"/>
<path d="M20.2501 6.10986H17.6251C16.1424 6.14845 16.1413 8.32106 17.6252 8.35986H20.2501C21.7328 8.32127 21.7339 6.14866 20.2501 6.10986Z" fill="#196164"/>
<path d="M13.8754 9.85986H7.87543C7.38435 9.85229 7.38099 9.11814 7.87545 9.10986H13.8754C14.3665 9.11743 14.3699 9.85159 13.8754 9.85986Z" fill="#196164"/>
<path d="M21 9.85986H15.375C15.1677 9.85986 15 9.69214 15 9.48486C15 9.27759 15.1677 9.10986 15.375 9.10986H21C21.4912 9.11747 21.4943 9.8516 21 9.85986Z" fill="#196164"/>
<path d="M13.8754 11.3599H7.87543C7.38435 11.3523 7.38099 10.6181 7.87545 10.6099H13.8754C14.3665 10.6174 14.3699 11.3516 13.8754 11.3599Z" fill="#196164"/>
<path d="M21 11.3599H15.375C15.1677 11.3599 15 11.1921 15 10.9849C15 10.7776 15.1677 10.6099 15.375 10.6099H21C21.4912 10.6175 21.4943 11.3516 21 11.3599Z" fill="#196164"/>
<path d="M10.1245 12.8599H7.87453C7.38224 12.8519 7.38109 12.118 7.87455 12.1099H10.1245C10.6168 12.1178 10.618 12.8517 10.1245 12.8599Z" fill="#196164"/>
<path d="M21 2.73486H3C1.75928 2.73486 0.75 3.74414 0.75 4.98486V16.9849C0.75 18.2256 1.75928 19.2349 3 19.2349H21C22.2407 19.2349 23.25 18.2256 23.25 16.9849V4.98486C23.25 3.74414 22.2407 2.73486 21 2.73486ZM5.25 13.9849H3.375C2.88259 13.9769 2.88165 13.243 3.37502 13.2349C3.375 13.2349 5.25 13.2349 5.25 13.2349C5.74241 13.2428 5.74335 13.9767 5.25 13.9849ZM5.25 12.4849H2.25C1.75794 12.477 1.75636 11.743 2.25002 11.7349C2.25 11.7349 5.25 11.7349 5.25 11.7349C5.74206 11.7427 5.74364 12.4767 5.25 12.4849ZM5.25 10.9849H2.25C1.75794 10.977 1.75636 10.243 2.25002 10.2349C2.25 10.2349 5.25 10.2349 5.25 10.2349C5.74206 10.2427 5.74364 10.9767 5.25 10.9849ZM3.75 9.48486C2.71618 9.48486 1.875 8.64368 1.875 7.60986C1.96312 5.12831 5.53725 5.12894 5.625 7.60989C5.625 8.64367 4.78381 9.48486 3.75 9.48486ZM22.5 16.9849C22.5 17.8121 21.8273 18.4849 21 18.4849H7.125V3.48486H21C21.8273 3.48486 22.5 4.15759 22.5 4.98486V16.9849Z" fill="#196164"/>
<path d="M21.3084 19.4525L20.513 18.6567L21.1971 17.9726C21.807 17.4027 21.5164 16.2915 20.7049 16.094C20.7049 16.094 15.9526 14.7632 15.9526 14.7632C15.4124 14.5943 14.8583 15.1459 15.0283 15.6875C15.0283 15.6875 16.3591 20.4398 16.3591 20.4398C16.5569 21.2507 17.6676 21.5422 18.2378 20.9319C18.2378 20.932 18.9219 20.2479 18.9219 20.2479L19.7176 21.0433C19.8637 21.1894 20.056 21.2627 20.2479 21.2627C20.6525 21.3056 21.0442 20.7502 21.3085 20.513C21.601 20.2208 21.601 19.7447 21.3084 19.4525Z" fill="#C4F500"/>
</svg>
