<svg width="24" height="24" viewBox="0 0 24 24" fill="none" xmlns="http://www.w3.org/2000/svg">
<path d="M21 2.25H3C1.75928 2.25 0.75 3.25928 0.75 4.5V15.375C0.75 16.6157 1.75928 17.625 3 17.625H10.125V18.75H9.375C8.54773 18.75 7.875 19.4227 7.875 20.25C7.875 21.0773 8.54773 21.75 9.375 21.75H14.625C15.4523 21.75 16.125 21.0773 16.125 20.25C16.125 19.4227 15.4523 18.75 14.625 18.75H13.875V17.625H21C22.2407 17.625 23.25 16.6157 23.25 15.375V4.5C23.25 3.25928 22.2407 2.25 21 2.25ZM3 3H21C21.8273 3 22.5 3.67273 22.5 4.5V14.6143C22.1581 15.0735 21.616 15.375 21 15.375H3C2.38399 15.375 1.84188 15.0734 1.5 14.6143V4.5C1.5 3.67273 2.17273 3 3 3ZM14.625 19.5C15.6122 19.5254 15.6152 20.9738 14.625 21H9.375C8.38741 20.9745 8.38514 19.5262 9.37502 19.5H10.2839C10.9097 20.9853 13.0908 20.9846 13.7161 19.5H14.625Z" fill="#196164"/>
<path d="M10.5 8.25H9C8.37868 8.25 7.875 8.75368 7.875 9.375V13.5C7.875 14.1213 8.37868 14.625 9 14.625H10.5C11.1213 14.625 11.625 14.1213 11.625 13.5V9.375C11.625 8.75368 11.1213 8.25 10.5 8.25Z" fill="#196164"/>
<path d="M6 10.5H4.5C3.87868 10.5 3.375 11.0037 3.375 11.625V13.5C3.375 14.1213 3.87868 14.625 4.5 14.625H6C6.62132 14.625 7.125 14.1213 7.125 13.5V11.625C7.125 11.0037 6.62132 10.5 6 10.5Z" fill="#196164"/>
<path d="M19.5 6.375H18C17.3787 6.375 16.875 6.87868 16.875 7.5V13.5C16.875 14.1213 17.3787 14.625 18 14.625H19.5C20.1213 14.625 20.625 14.1213 20.625 13.5V7.5C20.625 6.87868 20.1213 6.375 19.5 6.375Z" fill="#196164"/>
<path d="M13.5002 14.625H15.0002C16.4832 14.5863 16.4837 12.4137 15.0001 12.375H13.5002C12.0171 12.4137 12.0166 14.5863 13.5002 14.625Z" fill="#196164"/>
<path d="M19.3904 4.60986L18.6404 3.85986C18.2922 3.51459 17.7648 4.04199 18.1101 4.39014C18.1101 4.39013 18.2199 4.49999 18.2199 4.49999H17.2502C16.2164 4.49999 15.3752 5.34118 15.3752 6.37499V9.37499C15.3354 10.8583 13.1646 10.8586 13.1252 9.37496V8.24999C13.1252 7.21618 12.284 6.37499 11.2502 6.37499H7.50021C6.4664 6.37499 5.62521 7.21618 5.62521 8.24999C5.62521 8.4569 5.45712 8.62499 5.25021 8.62499H3.75021C3.26164 8.63141 3.25385 9.36679 3.75023 9.37499C3.75021 9.37499 5.25021 9.37499 5.25021 9.37499C5.87058 9.37499 6.37521 8.87035 6.37521 8.24999C6.37521 7.62963 6.87985 7.12499 7.50021 7.12499H11.2502C11.8706 7.12499 12.3752 7.62963 12.3752 8.24999V9.37499C12.4623 11.8553 16.0375 11.8568 16.1252 9.37496V6.37499C16.1252 5.75463 16.6299 5.24999 17.2502 5.24999H18.2199L18.1101 5.35986C17.7649 5.70799 18.2921 6.23548 18.6404 5.89011C18.6404 5.89013 19.3904 5.14013 19.3904 5.14013C19.5368 4.99365 19.5368 4.75634 19.3904 4.60986Z" fill="#C4F500"/>
</svg>
