<svg width="24" height="24" viewBox="0 0 24 24" fill="none" xmlns="http://www.w3.org/2000/svg">
<path d="M16.8755 5.0625H13.5005C13.0085 5.05467 13.0068 4.32069 13.5005 4.3125H16.8755C17.3674 4.32033 17.3692 5.05431 16.8755 5.0625Z" fill="#196164"/>
<path d="M16.8745 6.5625H14.6245C14.1322 6.55456 14.1311 5.82066 14.6245 5.8125H16.8745C17.3668 5.82044 17.368 6.55434 16.8745 6.5625Z" fill="#196164"/>
<path d="M16.8755 10.6875H13.5005C13.0085 10.6797 13.0068 9.94569 13.5005 9.9375H16.8755C17.3674 9.94533 17.3692 10.6793 16.8755 10.6875Z" fill="#196164"/>
<path d="M16.8745 12.1875H14.6245C14.1322 12.1796 14.1311 11.4457 14.6245 11.4375H16.8745C17.3668 11.4454 17.368 12.1793 16.8745 12.1875Z" fill="#196164"/>
<path d="M16.5 1.3125H3C1.75928 1.3125 0.75 2.32178 0.75 3.5625V19.3125C0.75 20.5532 1.75928 21.5625 3 21.5625H16.5C17.7407 21.5625 18.75 20.5532 18.75 19.3125V3.5625C18.75 2.32178 17.7407 1.3125 16.5 1.3125ZM18 19.3125C18 20.1398 17.3273 20.8125 16.5 20.8125H3C2.17273 20.8125 1.5 20.1398 1.5 19.3125V3.5625C1.5 2.73523 2.17273 2.0625 3 2.0625H16.5C17.3273 2.0625 18 2.73523 18 3.5625V19.3125Z" fill="#196164"/>
<path d="M12.1099 4.42236L11.9857 4.54648C11.9155 3.99321 11.4471 3.5625 10.875 3.5625H8.625C8.00464 3.5625 7.5 4.06714 7.5 4.6875V6.9375C7.5 7.55786 8.00464 8.0625 8.625 8.0625H10.875C11.4954 8.0625 12 7.55786 12 6.9375V5.59277L12.6401 4.95264C12.9854 4.60449 12.458 4.07704 12.1099 4.42236ZM11.25 6.9375C11.25 7.14441 11.0819 7.3125 10.875 7.3125H8.625C8.41809 7.3125 8.25 7.14441 8.25 6.9375V4.6875C8.25 4.48059 8.41809 4.3125 8.625 4.3125H10.875C11.0819 4.3125 11.25 4.48059 11.25 4.6875V5.28223L10.5 6.03223L10.0151 5.54736C9.66725 5.2023 9.13936 5.72928 9.48488 6.07765C9.48486 6.07764 10.2349 6.82764 10.2349 6.82764C10.3081 6.90088 10.404 6.9375 10.5 6.9375C10.7298 6.96583 11.0378 6.52458 11.25 6.34277L11.25 6.9375Z" fill="#196164"/>
<path d="M5.625 3.5625H3.375C2.75464 3.5625 2.25 4.06714 2.25 4.6875V6.9375C2.25 7.55786 2.75464 8.0625 3.375 8.0625H5.625C6.24536 8.0625 6.75 7.55786 6.75 6.9375V4.6875C6.75 4.06714 6.24536 3.5625 5.625 3.5625ZM5.51514 6.29736C5.86041 6.64568 5.33299 7.17288 4.98485 6.82762C4.98486 6.82764 4.5 6.34278 4.5 6.34278L4.01514 6.82764C3.86865 6.97412 3.63135 6.97412 3.48486 6.82764C3.33838 6.68116 3.33838 6.44385 3.48486 6.29737L3.96973 5.8125L3.48486 5.32764C3.33838 5.18116 3.33838 4.94385 3.48486 4.79737C3.63135 4.65089 3.86865 4.65089 4.01514 4.79737L4.5 5.28223L4.98486 4.79737C5.13135 4.65089 5.36865 4.65089 5.51514 4.79737C5.66162 4.94385 5.66162 5.18116 5.51514 5.32764L5.03027 5.8125L5.51514 6.29736Z" fill="#196164"/>
<path d="M12.1099 10.0474L11.9857 10.1715C11.9155 9.61821 11.4471 9.1875 10.875 9.1875H8.625C8.00464 9.1875 7.5 9.69214 7.5 10.3125V12.5625C7.5 13.1829 8.00464 13.6875 8.625 13.6875H10.875C11.4954 13.6875 12 13.1829 12 12.5625V11.2178L12.6401 10.5776C12.9854 10.2295 12.458 9.70204 12.1099 10.0474ZM11.25 12.5625C11.25 12.7694 11.0819 12.9375 10.875 12.9375H8.625C8.41809 12.9375 8.25 12.7694 8.25 12.5625V10.3125C8.25 10.1056 8.41809 9.9375 8.625 9.9375H10.875C11.0819 9.9375 11.25 10.1056 11.25 10.3125V10.9072L10.5 11.6572L10.0151 11.1724C9.66725 10.8273 9.13936 11.3543 9.48488 11.7027C9.48486 11.7026 10.2349 12.4526 10.2349 12.4526C10.3081 12.5259 10.404 12.5625 10.5 12.5625C10.7298 12.5908 11.0378 12.1496 11.25 11.9678L11.25 12.5625Z" fill="#196164"/>
<path d="M5.625 9.1875H3.375C2.75464 9.1875 2.25 9.69214 2.25 10.3125V12.5625C2.25 13.1829 2.75464 13.6875 3.375 13.6875H5.625C6.24536 13.6875 6.75 13.1829 6.75 12.5625V10.3125C6.75 9.69214 6.24536 9.1875 5.625 9.1875ZM5.51514 11.9224C5.86041 12.2707 5.33299 12.7979 4.98485 12.4526C4.98486 12.4526 4.5 11.9678 4.5 11.9678L4.01514 12.4526C3.86865 12.5991 3.63135 12.5991 3.48486 12.4526C3.33838 12.3062 3.33838 12.0689 3.48486 11.9224L3.96973 11.4375L3.48486 10.9526C3.33838 10.8062 3.33838 10.5689 3.48486 10.4224C3.63135 10.2759 3.86865 10.2759 4.01514 10.4224L4.5 10.9072L4.98486 10.4224C5.13135 10.2759 5.36865 10.2759 5.51514 10.4224C5.66162 10.5689 5.66162 10.8062 5.51514 10.9526L5.03027 11.4375L5.51514 11.9224Z" fill="#196164"/>
<path d="M12.1099 15.6724L11.9857 15.7965C11.9155 15.2432 11.4471 14.8125 10.875 14.8125H8.625C8.00464 14.8125 7.5 15.3171 7.5 15.9375V18.1875C7.5 18.8079 8.00464 19.3125 8.625 19.3125H10.875C11.4954 19.3125 12 18.8079 12 18.1875V16.8428L12.6401 16.2026C12.9854 15.8545 12.458 15.327 12.1099 15.6724ZM11.25 18.1875C11.25 18.3944 11.0819 18.5625 10.875 18.5625H8.625C8.41809 18.5625 8.25 18.3944 8.25 18.1875V15.9375C8.25 15.7306 8.41809 15.5625 8.625 15.5625H10.875C11.0819 15.5625 11.25 15.7306 11.25 15.9375V16.5322L10.5 17.2822L10.0151 16.7974C9.66725 16.4523 9.13936 16.9793 9.48488 17.3277C9.48486 17.3276 10.2349 18.0776 10.2349 18.0776C10.3081 18.1509 10.404 18.1875 10.5 18.1875C10.7298 18.2158 11.0378 17.7746 11.25 17.5928L11.25 18.1875Z" fill="#196164"/>
<path d="M5.625 14.8125H3.375C2.75464 14.8125 2.25 15.3171 2.25 15.9375V18.1875C2.25 18.8079 2.75464 19.3125 3.375 19.3125H5.625C6.24536 19.3125 6.75 18.8079 6.75 18.1875V15.9375C6.75 15.3171 6.24536 14.8125 5.625 14.8125ZM5.51514 17.5474C5.86041 17.8957 5.33299 18.4229 4.98485 18.0776C4.98486 18.0776 4.5 17.5928 4.5 17.5928L4.01514 18.0776C3.86865 18.2241 3.63135 18.2241 3.48486 18.0776C3.33838 17.9312 3.33838 17.6939 3.48486 17.5474L3.96973 17.0625L3.48486 16.5776C3.33838 16.4312 3.33838 16.1939 3.48486 16.0474C3.63135 15.9009 3.86865 15.9009 4.01514 16.0474L4.5 16.5322L4.98486 16.0474C5.13135 15.9009 5.36865 15.9009 5.51514 16.0474C5.66162 16.1939 5.66162 16.4312 5.51514 16.5776L5.03027 17.0625L5.51514 17.5474Z" fill="#196164"/>
<path d="M13.875 17.8125C13.875 15.3272 15.8897 13.3125 18.375 13.3125C24.3442 13.5495 24.3425 22.0764 18.375 22.3125C15.8897 22.3125 13.875 20.2978 13.875 17.8125Z" fill="#C4F500"/>
<path d="M18.375 22.6874C15.687 22.6874 13.5 20.5004 13.5 17.8124C13.7679 11.3451 22.9831 11.347 23.25 17.8125C23.25 20.5004 21.063 22.6874 18.375 22.6874ZM18.375 13.6874C16.1005 13.6874 14.25 15.5379 14.25 17.8124C14.4766 23.2848 22.2743 23.2832 22.5 17.8124C22.5 15.5379 20.6495 13.6874 18.375 13.6874Z" fill="#C4F500"/>
<path d="M17.588 19.6875C17.444 19.6875 17.3001 19.6326 17.1902 19.5227C17.1902 19.5227 16.1898 18.5222 16.1414 18.4743C15.6257 17.9454 16.4002 17.163 16.9339 17.6759C16.9617 17.7034 17.3019 18.0436 17.588 18.3296L19.8152 16.1023C20.3461 15.5887 21.125 16.3658 20.6106 16.8978C20.6107 16.8977 17.9857 19.5227 17.9857 19.5227C17.8758 19.6326 17.7319 19.6875 17.588 19.6875Z" fill="#196164"/>
</svg>
