<svg width="65" height="65" viewBox="0 0 65 65" fill="none" xmlns="http://www.w3.org/2000/svg">
<path d="M51.7969 18.0713H13.2031C9.84284 18.0713 7.10938 20.8048 7.10938 24.165V29.2432C7.10938 32.6035 9.84284 35.3369 13.2031 35.3369V33.3057C10.9626 33.3057 9.14062 31.4837 9.14062 29.2432V24.165C9.14062 21.9245 10.9626 20.1025 13.2031 20.1025H51.7969C54.0374 20.1025 55.8594 21.9245 55.8594 24.165V29.2432C55.8594 31.4837 54.0374 33.3057 51.7969 33.3057V35.3369C55.1572 35.3369 57.8906 32.6035 57.8906 29.2432V24.165C57.8906 20.8048 55.1572 18.0713 51.7969 18.0713Z" fill="#196164"/>
<path d="M56.875 4.86816H8.125C4.76471 4.86816 2.03125 7.60163 2.03125 10.9619V43.4619C2.03125 46.8222 4.76471 49.5557 8.125 49.5557H13.9781C13.6874 48.9157 13.4735 48.2357 13.3461 47.5244H8.125C5.88448 47.5244 4.0625 45.7024 4.0625 43.4619V12.9932H60.9375V43.4619C60.9375 45.7024 59.1155 47.5244 56.875 47.5244H51.6539C51.5265 48.2357 51.3126 48.9157 51.0219 49.5557H56.875C60.2353 49.5557 62.9688 46.8222 62.9688 43.4619V10.9619C62.9688 7.60163 60.2353 4.86816 56.875 4.86816ZM7.10938 10.9619C5.77524 10.9361 5.77543 8.95633 7.10942 8.93066C8.44351 8.95652 8.44332 10.9362 7.10938 10.9619ZM11.1719 10.9619C9.83774 10.9361 9.83793 8.95633 11.1719 8.93066C12.506 8.95652 12.5058 10.9362 11.1719 10.9619ZM15.2344 10.9619C13.9002 10.9361 13.9004 8.95633 15.2344 8.93066C16.5685 8.95652 16.5683 10.9362 15.2344 10.9619Z" fill="#196164"/>
<path d="M43.1641 26.1963H21.8359C18.196 26.1963 15.2344 29.1579 15.2344 32.7979V46.001C15.2344 49.641 18.196 52.6025 21.8359 52.6025H43.1641C46.804 52.6025 49.7656 49.641 49.7656 46.001V32.7979C49.7656 29.1579 46.804 26.1963 43.1641 26.1963ZM36.9691 34.118C35.9093 33.3195 37.1227 31.6998 38.1872 32.4934C38.1871 32.4934 42.2496 35.5402 42.2496 35.5402C42.7854 35.9199 42.7861 36.7852 42.2496 37.1648C42.2496 37.1648 38.1871 40.2117 38.1871 40.2117C38.0046 40.3486 37.7914 40.415 37.5791 40.415C36.6434 40.4499 36.1825 39.1332 36.9692 38.5871C36.9692 38.5871 39.9476 36.3525 39.9476 36.3525L36.9691 34.118ZM35.4745 31.6513L31.412 41.8076C30.8912 43.0408 29.051 42.2984 29.5255 41.0537C29.5255 41.0538 33.588 30.8975 33.588 30.8975C34.1039 29.6683 35.9495 30.4019 35.4745 31.6513ZM28.0309 38.5871C29.0917 39.387 27.8752 41.0056 26.8128 40.2117C26.8129 40.2117 22.7504 37.1648 22.7504 37.1648C22.2146 36.7852 22.2139 35.9198 22.7504 35.5402C22.7504 35.5402 26.8129 32.4934 26.8129 32.4934C27.8758 31.7015 29.0923 33.3163 28.0308 34.118C28.0309 34.118 25.0524 36.3525 25.0524 36.3525L28.0309 38.5871Z" fill="#196164"/>
<path d="M47.5539 55.2231L45.3997 53.0679L47.2524 51.2152C48.9041 49.6716 48.1172 46.6622 45.9193 46.1272C45.9194 46.1271 33.0486 42.5228 33.0486 42.5228C31.5847 42.0656 30.0852 43.5594 30.5453 45.0263C30.5452 45.0262 34.1495 57.8971 34.1495 57.8971C34.6854 60.0931 37.6934 60.8836 39.2375 59.23C39.2375 59.2301 41.0902 57.3774 41.0902 57.3774L43.2455 59.5316C43.6412 59.9273 44.1619 60.1257 44.6816 60.1257C45.7775 60.2419 46.8382 58.7377 47.554 58.0954C48.3464 57.304 48.3464 56.0146 47.5539 55.2231Z" fill="#C4F500"/>
</svg>
