<svg width="65" height="65" viewBox="0 0 65 65" fill="none" xmlns="http://www.w3.org/2000/svg">
<path d="M53.5395 43.6719C50.4948 43.4928 48.0891 42.1537 47.0778 39.6094H29.4531C26.0928 39.6094 23.3594 36.8759 23.3594 33.5156V14.2188C23.3594 10.8585 26.0928 8.125 29.4531 8.125H56.875C60.2353 8.125 62.9688 10.8585 62.9688 14.2188V33.5156C62.9688 36.8759 60.2353 39.6094 56.875 39.6094H53.482C53.355 40.4772 53.6258 41.3252 54.2467 41.9273C54.9036 42.5224 54.4235 43.7023 53.5395 43.6719ZM29.4531 10.1563C27.2126 10.1563 25.3906 11.9782 25.3906 14.2188V33.5156C25.3906 35.7561 27.2126 37.5781 29.4531 37.5781H47.8355C48.3146 37.5781 48.7292 37.9134 48.8284 38.3815C49.1364 39.7899 50.1685 40.718 51.5707 41.2399C51.3242 40.2647 51.2129 37.6693 52.7033 37.5781C52.7034 37.5781 56.875 37.5781 56.875 37.5781C59.1155 37.5781 60.9375 35.7561 60.9375 33.5156V14.2188C60.9375 11.9782 59.1155 10.1563 56.875 10.1563H29.4531Z" fill="#196164"/>
<path d="M53.8281 16.25H47.7344C45.4907 16.25 43.6719 18.0688 43.6719 20.3125V26.4062C43.6719 28.6499 45.4907 30.4688 47.7344 30.4688H53.8281C56.0718 30.4688 57.8906 28.6499 57.8906 26.4062V20.3125C57.8906 18.0688 56.0718 16.25 53.8281 16.25Z" fill="#196164"/>
<path d="M35.5469 21.3281H8.125C4.76471 21.3281 2.03125 24.0616 2.03125 27.4219V46.7188C2.03125 50.079 4.76471 52.8125 8.125 52.8125H11.518C11.645 53.6803 11.3742 54.5283 10.7533 55.1304C10.4488 55.426 10.3596 55.8792 10.5302 56.268C10.6999 56.656 11.0983 56.8989 11.519 56.873C14.5531 56.6704 16.9114 55.3423 17.9222 52.8125H35.5469C38.9072 52.8125 41.6406 50.079 41.6406 46.7188V27.4219C41.6406 24.0616 38.9072 21.3281 35.5469 21.3281ZM14.2188 43.6719C10.2991 43.6719 7.10938 40.4822 7.10938 36.5625C7.46736 27.1441 20.9716 27.1466 21.3281 36.5626C21.3281 40.4822 18.1384 43.6719 14.2188 43.6719Z" fill="#196164"/>
<path d="M36.5627 30.4689H23.3596C22.7983 30.4689 22.344 30.0146 22.344 29.4532C22.344 28.8919 22.7983 28.4376 23.3596 28.4376H34.111L32.7978 27.1244C31.8634 26.1824 33.2904 24.7525 34.234 25.6883C34.2339 25.6883 37.2808 28.7351 37.2808 28.7351C37.922 29.3343 37.4409 30.4989 36.5627 30.4689Z" fill="#C4F500"/>
<path d="M26.4065 37.5782C26.1466 37.5782 25.8868 37.479 25.6884 37.2806L22.6415 34.2338C22.001 33.6343 22.481 32.4702 23.3597 32.5001C23.3596 32.5001 36.5627 32.5001 36.5627 32.5001C37.8932 32.521 37.9016 34.5087 36.5627 34.5313H25.8114L27.1246 35.8445C27.7723 36.4478 27.2751 37.6089 26.4065 37.5782Z" fill="#C4F500"/>
</svg>
