<svg width="65" height="65" viewBox="0 0 65 65" fill="none" xmlns="http://www.w3.org/2000/svg">
<path d="M56.875 6.09375H8.125C4.76471 6.09375 2.03125 8.82721 2.03125 12.1875V41.6406C2.03125 45.0009 4.76471 47.7344 8.125 47.7344H27.4219V50.7812H25.3906C23.1501 50.7812 21.3281 52.6032 21.3281 54.8438C21.3281 57.0843 23.1501 58.9062 25.3906 58.9062H39.6094C41.8499 58.9062 43.6719 57.0843 43.6719 54.8438C43.6719 52.6032 41.8499 50.7812 39.6094 50.7812H37.5781V47.7344H56.875C60.2353 47.7344 62.9688 45.0009 62.9688 41.6406V12.1875C62.9688 8.82721 60.2353 6.09375 56.875 6.09375ZM8.125 8.125H56.875C59.1155 8.125 60.9375 9.94698 60.9375 12.1875V39.5804C60.0116 40.8239 58.5434 41.6406 56.875 41.6406H8.125C6.45663 41.6406 4.98843 40.8239 4.0625 39.5804V12.1875C4.0625 9.94698 5.88448 8.125 8.125 8.125ZM39.6094 52.8125C42.2829 52.8812 42.2913 56.804 39.6093 56.875H25.3906C22.7159 56.8058 22.7098 52.8833 25.3907 52.8125H27.8523C29.5471 56.8352 35.4542 56.8332 37.1477 52.8125H39.6094Z" fill="#196164"/>
<path d="M28.4375 22.3438H24.375C22.6923 22.3438 21.3281 23.7079 21.3281 25.3906V36.5625C21.3281 38.2452 22.6923 39.6094 24.375 39.6094H28.4375C30.1202 39.6094 31.4844 38.2452 31.4844 36.5625V25.3906C31.4844 23.7079 30.1202 22.3438 28.4375 22.3438Z" fill="#196164"/>
<path d="M16.25 28.4375H12.1875C10.5048 28.4375 9.14062 29.8016 9.14062 31.4844V36.5625C9.14062 38.2452 10.5048 39.6094 12.1875 39.6094H16.25C17.9327 39.6094 19.2969 38.2452 19.2969 36.5625V31.4844C19.2969 29.8016 17.9327 28.4375 16.25 28.4375Z" fill="#196164"/>
<path d="M52.8125 17.2656H48.75C47.0673 17.2656 45.7031 18.6298 45.7031 20.3125V36.5625C45.7031 38.2452 47.0673 39.6094 48.75 39.6094H52.8125C54.4952 39.6094 55.8594 38.2452 55.8594 36.5625V20.3125C55.8594 18.6298 54.4952 17.2656 52.8125 17.2656Z" fill="#196164"/>
<path d="M36.5625 39.6094H40.625C44.6415 39.5045 44.6428 33.6206 40.6249 33.5156H36.5625C32.5459 33.6205 32.5446 39.5044 36.5625 39.6094Z" fill="#196164"/>
<path d="M52.5151 12.485L50.4838 10.4537C49.5408 9.51863 48.1124 10.947 49.0477 11.8899C49.0476 11.8899 49.3452 12.1874 49.3452 12.1874H46.7188C43.9189 12.1874 41.6407 14.4656 41.6407 17.2656V25.3906C41.5329 29.4079 35.6537 29.4087 35.547 25.3905V22.3437C35.547 19.5438 33.2688 17.2656 30.4688 17.2656H20.3126C17.5127 17.2656 15.2345 19.5438 15.2345 22.3437C15.2345 22.9041 14.7792 23.3593 14.2188 23.3593H10.1563C8.83313 23.3767 8.81202 25.3684 10.1564 25.3906C10.1563 25.3906 14.2188 25.3906 14.2188 25.3906C15.899 25.3906 17.2657 24.0238 17.2657 22.3437C17.2657 20.6635 18.6324 19.2968 20.3126 19.2968H30.4688C32.149 19.2968 33.5157 20.6635 33.5157 22.3437V25.3906C33.7516 32.108 43.4343 32.1122 43.672 25.3905V17.2656C43.672 15.5854 45.0387 14.2187 46.7188 14.2187H49.3452L49.0476 14.5162C48.1128 15.4591 49.5407 16.8877 50.4838 15.9523C50.4838 15.9524 52.515 13.9211 52.515 13.9211C52.9118 13.5244 52.9118 12.8817 52.5151 12.485Z" fill="#C4F500"/>
</svg>
