<svg width="60" height="60" viewBox="0 0 60 60" fill="none" xmlns="http://www.w3.org/2000/svg">
<path d="M39.375 15.9375H30V17.8125H39.375C41.4469 17.8125 43.125 19.4906 43.125 21.5625V30H45V21.5625C45 18.4594 42.4781 15.9375 39.375 15.9375ZM16.875 38.4375V30H15V38.4375C15 41.5406 17.5219 44.0625 20.625 44.0625H30V42.1875H20.625C18.5532 42.1875 16.875 40.5093 16.875 38.4375Z" fill="#196164"/>
<path d="M38.4375 23.4375C38.4375 23.9531 38.0156 24.375 37.5 24.375H29.6531C29.8312 23.775 29.9531 23.1469 29.9906 22.5H37.5C38.0156 22.5 38.4375 22.9219 38.4375 23.4375Z" fill="#196164"/>
<path d="M38.4376 28.125C38.4376 28.6406 38.0157 29.0625 37.5001 29.0625H25.772C26.6626 28.5938 27.4595 27.9469 28.1064 27.1875H37.5001C38.0157 27.1875 38.4376 27.6094 38.4376 28.125Z" fill="#196164"/>
<path d="M32.8312 31.875C32.2031 32.4094 31.6499 33.0375 31.2093 33.75H22.4999C21.2696 33.7268 21.2675 31.8986 22.5 31.875H32.8312Z" fill="#196164"/>
<path d="M30.1313 36.5625C30.0127 37.1625 29.9899 37.8177 30 38.4375H22.5C21.9844 38.4375 21.5625 38.0156 21.5625 37.5C21.5625 36.9844 21.9844 36.5625 22.5 36.5625H30.1313Z" fill="#196164"/>
<path d="M30.1407 49.7812C29.1628 50.2508 29.6364 51.7056 30.7126 51.5625C30.4501 51 30.2626 50.4093 30.1407 49.7812ZM26.9532 49.3875C25.772 49.1906 24.6095 48.8813 23.4845 48.4781C22.3167 48.075 21.695 49.8018 22.847 50.2406C24.1255 50.6923 25.4538 51.0596 26.7939 51.2531C27.2438 51.2531 27.6376 50.925 27.722 50.475C27.8064 49.9594 27.4688 49.4718 26.9532 49.3875ZM20.222 46.9687C19.1814 46.3687 18.1876 45.6843 17.2689 44.9156C16.3125 44.1324 15.1366 45.5457 16.0689 46.35C17.072 47.1937 18.1595 47.9438 19.2845 48.5906C19.7304 48.842 20.3044 48.695 20.5688 48.2437C20.822 47.7937 20.672 47.2219 20.222 46.9687ZM14.7188 42.3843C13.9501 41.4656 13.247 40.4812 12.647 39.45C12.0146 38.3948 10.4173 39.3201 11.0251 40.3875C11.6814 41.5219 12.4501 42.6 13.2845 43.5938C14.0772 44.5137 15.5069 43.323 14.7188 42.3843ZM11.1095 36.1969C10.697 35.0718 10.3782 33.9094 10.172 32.7281C9.93043 31.5276 8.1193 31.8471 8.3251 33.0656C8.55008 34.35 8.89696 35.625 9.34699 36.8437C9.7885 38.0063 11.5283 37.3473 11.1095 36.1969ZM52.0313 28.1062C50.9924 28.1346 51.0763 29.2403 51.0751 30C51.6216 30.0032 52.4178 29.9792 52.9501 30.0562C52.9994 29.2771 53.0928 28.1106 52.0313 28.1062ZM8.61571 30C8.79002 30.057 8.99509 30.0651 9.16886 30H8.61571ZM51.6001 21.3281C51.1593 20.1736 49.4399 20.8037 49.847 21.9657C50.2501 23.0906 50.5688 24.2625 50.7751 25.4344C51.0131 26.6501 52.8194 26.3249 52.6219 25.1062C52.397 23.8218 52.0501 22.5469 51.6001 21.3281ZM49.9407 17.775C49.2845 16.65 48.5251 15.5719 47.6813 14.5687C46.8812 13.64 45.4596 14.8413 46.247 15.7781C47.0157 16.6969 47.7189 17.6812 48.3189 18.7219C48.9601 19.7757 50.5301 18.8388 49.9407 17.775ZM44.9063 11.8031C43.9032 10.9688 42.8251 10.2094 41.6907 9.56251C40.6075 8.9557 39.7109 10.5482 40.7533 11.1844C41.7938 11.775 42.7782 12.4687 43.7063 13.2375C43.8751 13.3875 44.0907 13.4625 44.3063 13.4625C45.1432 13.49 45.5785 12.3338 44.9063 11.8031ZM38.1376 7.90312C36.9094 7.46246 35.6345 7.11559 34.3501 6.89998C33.1288 6.70546 32.8171 8.50849 34.0314 8.74683C35.2032 8.94372 36.3751 9.2625 37.5001 9.66562C37.9755 9.83997 38.522 9.59785 38.7001 9.10308C38.8782 8.61562 38.6251 8.08125 38.1376 7.90312ZM30.4407 6.5625C29.7001 6.5625 28.9501 6.59998 28.2095 6.675C28.6501 7.21877 29.0157 7.81872 29.3063 8.47498C30.1103 8.4087 31.348 8.64334 31.3782 7.49994C31.3782 6.98438 30.9657 6.5625 30.4407 6.5625Z" fill="#196164"/>
<path d="M52.0312 31.875H37.9688C34.6033 31.875 31.875 34.6033 31.875 37.9688V48.2812C31.875 51.6467 34.6033 54.375 37.9688 54.375H52.0312C55.3967 54.375 58.125 51.6467 58.125 48.2812V37.9688C58.125 34.6033 55.3967 31.875 52.0312 31.875Z" fill="#196164"/>
<path d="M22.0312 5.625H7.96875C4.60326 5.625 1.875 8.35326 1.875 11.7188V22.0312C1.875 25.3967 4.60326 28.125 7.96875 28.125H22.0312C25.3967 28.125 28.125 25.3967 28.125 22.0312V11.7188C28.125 8.35326 25.3967 5.625 22.0312 5.625Z" fill="#196164"/>
<path d="M49.9026 40.7876L44.4644 37.8424C42.6801 36.798 40.244 38.249 40.3125 40.3153C40.3124 40.3152 40.3124 46.2066 40.3124 46.2066C40.244 48.2727 42.6815 49.7244 44.4649 48.6794C44.4648 48.6795 49.9026 45.7342 49.9026 45.7342C51.8386 44.7632 51.8397 41.7582 49.9026 40.7876Z" fill="#C4F500"/>
<path d="M8.4375 21.5625C8.50013 19.0896 12.1252 19.0901 12.1875 21.5625C12.1249 24.0354 8.49978 24.0349 8.4375 21.5625Z" fill="#196164"/>
<path d="M17.8125 18.75C17.8751 16.2771 21.5002 16.2776 21.5625 18.75C21.4999 21.2229 17.8748 21.2224 17.8125 18.75Z" fill="#196164"/>
<path d="M21.9109 13.1917L12.5359 9.44172C11.9451 9.18752 11.2316 9.66925 11.25 10.3124C11.25 10.3124 11.25 18.9226 11.25 18.9226C9.47947 18.2333 7.46269 19.6635 7.50002 21.5624C7.59705 25.2704 13.0281 25.2708 13.125 21.5623V11.6966L20.625 14.6968V16.1101C16.4328 14.8734 15.3175 21.2967 19.6875 21.5624C21.2384 21.5624 22.5 20.3008 22.5 18.7499V14.0624C22.5 13.6788 22.2665 13.3345 21.9109 13.1917ZM10.3125 22.4999C9.08048 22.4781 9.08066 20.6465 10.3125 20.6249C11.5445 20.6467 11.5443 22.4783 10.3125 22.4999ZM19.6875 19.6874C18.4555 19.6656 18.4557 17.834 19.6875 17.8124C20.9195 17.8342 20.9193 19.6658 19.6875 19.6874Z" fill="#C4F500"/>
</svg>
