<svg width="60" height="60" viewBox="0 0 60 60" fill="none" xmlns="http://www.w3.org/2000/svg">
<path d="M30.1862 29.0625H19.8737C18.6445 29.0431 18.6389 27.208 19.8738 27.1875H30.1862C31.4155 27.2069 31.4211 29.042 30.1862 29.0625Z" fill="#196164"/>
<path d="M19.8738 33.75H5.81128C5.29309 33.75 4.87378 33.3307 4.87378 32.8125C4.87378 32.2943 5.29309 31.875 5.81128 31.875H19.8738C21.1018 31.894 21.1096 33.7293 19.8738 33.75Z" fill="#196164"/>
<path d="M32.0613 33.75H23.6238C22.3939 33.7304 22.3894 31.8955 23.6238 31.875H32.0613C33.2911 31.8946 33.2956 33.7295 32.0613 33.75Z" fill="#196164"/>
<path d="M16.1238 38.4375H10.4988C9.2681 38.4176 9.26522 36.5829 10.4989 36.5625H16.1238C17.3546 36.5824 17.3575 38.4171 16.1238 38.4375Z" fill="#196164"/>
<path d="M31.1238 38.4375H19.8738C19.3556 38.4375 18.9363 38.0182 18.9363 37.5C18.9363 36.9818 19.3556 36.5625 19.8738 36.5625H31.1238C32.3527 36.5818 32.3589 38.4169 31.1238 38.4375Z" fill="#196164"/>
<path d="M47.0613 52.5C47.0613 54.5718 45.3832 56.25 43.3113 56.25H13.3113C11.2394 56.25 9.56128 54.5718 9.56128 52.5V45.9375H7.68628V52.5C7.68628 55.6031 10.2082 58.125 13.3113 58.125H43.3113C46.4144 58.125 48.9363 55.6031 48.9363 52.5V45.9375H47.0613V52.5Z" fill="#196164"/>
<path d="M49.8738 8.4375H48.9363C49.3005 5.0117 46.8512 1.86563 43.3112 1.87504C43.3113 1.875 13.3113 1.875 13.3113 1.875C10.2082 1.875 7.68628 4.39688 7.68628 7.5V25.3125H9.56128V7.5C9.56128 5.42811 11.2394 3.75 13.3113 3.75H43.3113C45.3832 3.75 47.0613 5.42811 47.0613 7.5V37.5281C47.605 37.1062 48.2425 36.7969 48.9363 36.6562V20.625H49.8738C51.4247 20.625 52.6863 19.3634 52.6863 17.8125V11.25C52.6863 9.69909 51.4247 8.4375 49.8738 8.4375Z" fill="#196164"/>
<path d="M11.4363 51.5625C11.4363 53.1134 12.6979 54.375 14.2488 54.375H42.3738C43.9247 54.375 45.1863 53.1134 45.1863 51.5625V45.9375H11.4363V51.5625Z" fill="#196164"/>
<path d="M45.1863 8.4375C45.1863 6.88659 43.9247 5.625 42.3738 5.625H14.2488C12.6979 5.625 11.4363 6.88659 11.4363 8.4375V25.3125H45.1863V8.4375Z" fill="#196164"/>
<path d="M54.326 26.6107C53.611 25.7858 52.5352 25.3125 51.3752 25.3125H35.8113V22.5C35.8113 20.4318 34.1295 18.75 32.0613 18.75C29.9931 18.75 28.3113 20.4318 28.3113 22.5C28.3113 23.0182 28.7306 23.4375 29.2488 23.4375C29.767 23.4375 30.1863 23.0182 30.1863 22.5C30.1863 21.4664 31.0276 20.625 32.0613 20.625C33.0949 20.625 33.9363 21.4664 33.9363 22.5V36.9141C33.9363 38.7881 35.6181 40.3125 37.6863 40.3125H50.2034C52.0829 40.3125 53.6815 39.0399 53.9222 37.3517L55.0941 29.1486C55.225 28.2349 54.9522 27.3331 54.326 26.6107Z" fill="#C4F500"/>
<path d="M49.8738 31.875H38.6238C38.1056 31.875 37.6863 31.4557 37.6863 30.9375C37.6863 30.4193 38.1056 30 38.6238 30H49.8738C51.1027 30.0193 51.1089 31.8544 49.8738 31.875Z" fill="#196164"/>
<path d="M39.5612 38.4375C35.8526 38.5347 35.8533 43.9658 39.5613 44.0625C43.2699 43.9653 43.2691 38.5342 39.5612 38.4375Z" fill="#196164"/>
<path d="M49.8737 38.4375C46.1651 38.5347 46.1658 43.9658 49.8738 44.0625C53.5824 43.9653 53.5816 38.5342 49.8737 38.4375Z" fill="#196164"/>
<path d="M49.8738 35.625H38.6238C38.1056 35.625 37.6863 35.2057 37.6863 34.6875C37.6863 34.1693 38.1056 33.75 38.6238 33.75H49.8738C51.1027 33.7693 51.1089 35.6044 49.8738 35.625Z" fill="#196164"/>
<path d="M41.4363 36.5625C40.9181 36.5625 40.4988 36.1432 40.4988 35.625V30C40.4988 29.4818 40.9181 29.0625 41.4363 29.0625C41.9545 29.0625 42.3738 29.4818 42.3738 30V35.625C42.3738 36.1432 41.9545 36.5625 41.4363 36.5625Z" fill="#196164"/>
<path d="M45.1863 36.5625C44.6681 36.5625 44.2488 36.1432 44.2488 35.625V30C44.2488 29.4818 44.6681 29.0625 45.1863 29.0625C45.7045 29.0625 46.1238 29.4818 46.1238 30V35.625C46.1238 36.1432 45.7045 36.5625 45.1863 36.5625Z" fill="#196164"/>
<path d="M48.9363 36.5625C48.4181 36.5625 47.9988 36.1432 47.9988 35.625V30C47.9988 29.4818 48.4181 29.0625 48.9363 29.0625C49.4545 29.0625 49.8738 29.4818 49.8738 30V35.625C49.8738 36.1432 49.4545 36.5625 48.9363 36.5625Z" fill="#196164"/>
</svg>
