<svg width="60" height="60" viewBox="0 0 60 60" fill="none" xmlns="http://www.w3.org/2000/svg">
<path d="M58.1327 22.9593C58.1327 21.0541 56.7009 19.4934 54.8599 19.2542C54.4637 17.599 53.8095 16.0471 52.9407 14.6364C55.5998 11.1324 51.1996 6.83412 47.7015 9.39571C46.2897 8.52579 44.7366 7.87084 43.0799 7.47425C42.4751 3.15435 36.2726 3.1577 35.6694 7.47436C34.0137 7.87078 32.4614 8.52527 31.0504 9.39451C27.5824 6.75791 23.1452 11.1585 25.8088 14.6369C17.1729 28.9297 33.4183 45.1595 47.6993 36.5241C51.1632 39.1859 55.6066 34.7446 52.9412 31.2812C53.8096 29.871 54.4635 28.3197 54.8597 26.6651C56.7009 26.4259 58.1327 24.8645 58.1327 22.9593ZM25.3124 22.9593C25.3124 20.3434 26.0433 17.9009 27.2924 15.8009C30.3013 17.1761 33.5908 13.8848 32.2161 10.8769C33.3508 10.202 34.5857 9.68536 35.896 9.35006C37.0697 12.4557 41.6806 12.4547 42.8535 9.35C44.1637 9.68532 45.3986 10.2019 46.5334 10.8768C45.158 13.8859 48.4494 17.1761 51.4574 15.8007C52.1323 16.9354 52.6489 18.1704 52.9842 19.4807C49.878 20.6543 49.88 25.2652 52.984 26.4385C52.6483 27.75 52.1311 28.9858 51.4553 30.1213C48.4312 28.7603 45.1766 32.0158 46.5379 35.039C37.4515 40.6651 25.1596 33.6979 25.3124 22.9593Z" fill="#196164"/>
<path d="M39.7636 31.708H38.0117C37.6112 30.0537 36.9653 28.4909 36.0841 27.0471L37.3173 25.8129C38.2543 24.9151 38.255 23.2953 37.3173 22.3971C37.3173 22.3971 35.2267 20.306 35.2267 20.306C34.2846 19.363 32.752 19.363 31.81 20.306L30.5749 21.5411C29.1311 20.6613 27.5683 20.0167 25.9122 19.6176V17.868C25.9122 16.5359 24.8282 15.4519 23.4961 15.4519H20.5394C19.2073 15.4519 18.1233 16.5359 18.1233 17.868V19.6203C16.4694 20.0204 14.9071 20.6667 13.4623 21.5475L12.2287 20.3143C11.2875 19.3722 9.75492 19.3713 8.81192 20.3143L6.72086 22.4044C5.77969 23.3465 5.77969 24.8791 6.72132 25.8212L7.95636 27.0562C7.07654 28.5018 6.43201 30.0646 6.03284 31.7199H4.28327C2.95117 31.7199 1.86719 32.803 1.86719 34.1351V37.0922C1.86719 38.4243 2.95117 39.5083 4.28327 39.5083H6.03512C6.43567 41.1627 7.08157 42.7255 7.96277 44.1692L6.72863 45.4025C5.78747 46.3445 5.78747 47.8771 6.72909 48.8192L8.82016 50.9103C9.76315 51.8523 11.2953 51.8514 12.2364 50.9103L13.4715 49.6752C14.9171 50.5551 16.4799 51.1996 18.1347 51.5988V53.3483C18.1347 54.6804 19.2187 55.7644 20.5508 55.7644H23.5075C24.8396 55.7644 25.9236 54.6804 25.9236 53.3483V51.596C27.5775 51.1959 29.1398 50.5496 30.5845 49.6688L31.8177 50.902C32.7301 51.8157 34.3222 51.8157 35.2345 50.902L37.3251 48.811C38.2621 47.9133 38.2628 46.2932 37.3251 45.3951C37.3251 45.3951 36.0905 44.1601 36.0905 44.1601C36.9703 42.7145 37.6149 41.1517 38.014 39.4964H39.7636C41.0957 39.4964 42.1797 38.4133 42.1797 37.0812V34.1241C42.1797 32.792 41.0957 31.708 39.7636 31.708Z" fill="#C4F500"/>
<path d="M22.0234 23.8894C15.5616 23.8894 10.3047 29.1464 10.3047 35.6082C10.9483 51.1547 33.1009 51.1502 33.7422 35.6081C33.7422 29.1464 28.4852 23.8894 22.0234 23.8894Z" fill="#196164"/>
</svg>
