<svg width="45" height="45" viewBox="0 0 45 45" fill="none" xmlns="http://www.w3.org/2000/svg">
<path d="M29.8828 9.84375H21.4453C21.0567 9.84375 20.7422 9.52926 20.7422 9.14062C20.7422 8.75199 21.0567 8.4375 21.4453 8.4375H29.8828C30.8045 8.45198 30.8091 9.82832 29.8828 9.84375Z" fill="#196164"/>
<path d="M29.8828 13.3594H21.4453C21.0567 13.3594 20.7422 13.0449 20.7422 12.6562C20.7422 12.2676 21.0567 11.9531 21.4453 11.9531H29.8828C30.8045 11.9676 30.8091 13.3439 29.8828 13.3594Z" fill="#196164"/>
<path d="M27.7737 20.3906H23.5549C22.6319 20.3757 22.6297 18.9997 23.5549 18.9844H27.7737C28.6967 18.9993 28.6989 20.3753 27.7737 20.3906Z" fill="#196164"/>
<path d="M31.2891 4.21875H20.0391C17.7127 4.21875 15.8203 6.11115 15.8203 8.4375V13.3594H17.2266V8.4375C17.2266 6.88637 18.4879 5.625 20.0391 5.625H31.2891C32.8402 5.625 34.1016 6.88637 34.1016 8.4375V22.5C34.1016 22.9851 33.967 23.4348 33.75 23.8335V25.9197C34.8125 25.1529 35.5078 23.9075 35.5078 22.5V8.4375C35.5078 6.11115 33.6154 4.21875 31.2891 4.21875Z" fill="#196164"/>
<path d="M28.125 18.2812H24.6094V17.5781C24.6094 16.027 23.348 14.7656 21.7969 14.7656H11.9531C10.402 14.7656 9.14062 16.027 9.14062 17.5781V18.2812H5.625C3.29865 18.2812 1.40625 20.1736 1.40625 22.5V36.5625C1.40625 38.8889 3.29865 40.7812 5.625 40.7812H28.125C30.4514 40.7812 32.3438 38.8889 32.3438 36.5625V22.5C32.3438 20.1736 30.4514 18.2812 28.125 18.2812ZM29.5312 26.0156H24.9815C23.6604 26.0156 22.4725 26.7311 21.8806 27.8826C19.8973 31.9206 13.8523 31.9207 11.8694 27.8825C11.2775 26.7311 10.0896 26.0156 8.76846 26.0156H4.21875C3.30349 26.0036 3.28734 24.625 4.21879 24.6094C4.21875 24.6094 8.76846 24.6094 8.76846 24.6094C10.619 24.6094 12.2861 25.6174 13.1204 27.2399C14.579 30.2617 19.1714 30.2619 20.6296 27.2398C21.4638 25.6174 23.131 24.6094 24.9815 24.6094H29.5312C30.447 24.6227 30.4626 25.9993 29.5312 26.0156ZM10.5469 17.5781C10.5469 16.8029 11.1779 16.1719 11.9531 16.1719H21.7969C22.5721 16.1719 23.2031 16.8029 23.2031 17.5781V18.2812H10.5469V17.5781Z" fill="#196164"/>
<path d="M39.375 14.7656H28.125C25.795 14.7656 23.9062 16.6544 23.9062 18.9844V33.0469C23.9062 35.3768 25.795 37.2656 28.125 37.2656H39.375C41.705 37.2656 43.5938 35.3768 43.5938 33.0469V18.9844C43.5938 16.6544 41.705 14.7656 39.375 14.7656Z" fill="#C4F500"/>
<path d="M37.9688 20.3906H29.5312C29.1426 20.3906 28.8281 20.0761 28.8281 19.6875C28.8281 19.2989 29.1426 18.9844 29.5312 18.9844H37.9688C38.8905 18.9989 38.8951 20.3752 37.9688 20.3906Z" fill="#196164"/>
<path d="M37.9688 23.9062H29.5312C29.1426 23.9062 28.8281 23.5918 28.8281 23.2031C28.8281 22.8145 29.1426 22.5 29.5312 22.5H37.9688C38.8905 22.5145 38.8951 23.8908 37.9688 23.9062Z" fill="#196164"/>
<path d="M37.9688 27.4219H29.5312C29.1426 27.4219 28.8281 27.1074 28.8281 26.7188C28.8281 26.3301 29.1426 26.0156 29.5312 26.0156H37.9688C38.8905 26.0301 38.8951 27.4064 37.9688 27.4219Z" fill="#196164"/>
<path d="M35.8596 30.9375H31.6408C30.7178 30.9226 30.7156 29.5465 31.6409 29.5312H35.8596C36.7826 29.5461 36.7848 30.9222 35.8596 30.9375Z" fill="#196164"/>
</svg>
