<svg width="45" height="45" viewBox="0 0 45 45" fill="none" xmlns="http://www.w3.org/2000/svg">
<path d="M39.375 21.0867H37.5609C37.1742 19.4344 36.5274 17.8734 35.6344 16.4391L36.9141 15.1594C37.7367 14.3367 37.7367 13.0008 36.9141 12.1781L34.9242 10.1883C34.1016 9.36563 32.7656 9.36563 31.943 10.1883L30.6633 11.468C29.2289 10.575 27.668 9.92813 26.0086 9.54841V7.73438C26.0086 6.57421 25.0664 5.625 23.8992 5.625H21.0867C19.9266 5.625 18.9773 6.57421 18.9773 7.73438V9.54841C17.325 9.93516 15.7641 10.582 14.3297 11.475L13.05 10.1953C12.2274 9.37263 10.8914 9.37263 10.0688 10.1953L8.0789 12.1851C7.25626 13.0078 7.25626 14.3437 8.0789 15.1664L9.35859 16.4461C8.46561 17.8805 7.81875 19.4414 7.43908 21.1008H5.625C4.46483 21.1008 3.51562 22.043 3.51562 23.2102V26.0227C3.51562 27.1828 4.46483 28.132 5.625 28.132H7.43908C7.82579 29.7844 8.47265 31.3453 9.36563 32.7797L8.08594 34.0594C7.2633 34.882 7.2633 36.218 8.08594 37.0406L10.0758 39.0305C10.8984 39.8531 12.2344 39.8531 13.057 39.0305L14.3367 37.7508C15.7711 38.6437 17.3321 39.2906 18.9914 39.6703V41.4844C18.9914 42.6445 19.9336 43.5938 21.1008 43.5938H23.9133C25.0734 43.5938 26.0227 42.6445 26.0227 41.4844V39.6703C27.675 39.2836 29.236 38.6367 30.6703 37.7438L31.95 39.0235C32.7727 39.8461 34.1086 39.8461 34.9313 39.0235L36.9211 37.0336C37.7438 36.211 37.7438 34.875 36.9211 34.0524L35.6414 32.7727C36.5344 31.3383 37.1813 29.7773 37.5609 28.118H39.375C40.5352 28.118 41.4844 27.1758 41.4844 26.0086V23.1961C41.4844 22.0359 40.5352 21.0867 39.375 21.0867ZM22.5 37.9688C15.1242 37.9688 9.14064 31.9852 9.14064 24.6094C9.84778 6.88905 35.1549 6.89411 35.8594 24.6095C35.8594 31.9852 29.8758 37.9688 22.5 37.9688Z" fill="#196164"/>
<path d="M22.4999 1.40625C11.056 1.52513 7.06404 16.4322 16.7162 22.2874C17.0319 21.985 17.4579 21.7969 17.9296 21.7969H27.0703C27.5419 21.7969 27.968 21.985 28.2837 22.2874C37.9411 16.4273 33.9364 1.52265 22.4999 1.40625Z" fill="#C4F500"/>
<path d="M30.2344 13.6785H28.125C27.2013 13.6634 27.2003 12.2874 28.125 12.2722H30.2344C31.1581 12.2873 31.1591 13.6632 30.2344 13.6785Z" fill="#196164"/>
<path d="M27.4225 10.1952C26.7323 10.2215 26.4468 9.21438 27.0703 8.88297L28.8967 7.82829C29.7025 7.37959 30.394 8.56979 29.5998 9.04641C29.3569 9.14774 27.6748 10.2624 27.4225 10.1952Z" fill="#196164"/>
<path d="M29.2478 18.2173C29.0043 18.2887 27.3045 17.165 27.0704 17.0686C26.2776 16.5931 26.9657 15.401 27.7736 15.8504C27.7735 15.8504 29.6 16.9051 29.6 16.9051C30.2228 17.2363 29.9387 18.2441 29.2478 18.2173Z" fill="#196164"/>
<path d="M16.875 13.6785H14.7656C13.842 13.6634 13.841 12.2874 14.7657 12.2722H16.875C17.7987 12.2873 17.7997 13.6632 16.875 13.6785Z" fill="#196164"/>
<path d="M17.5774 10.1952C17.3339 10.2667 15.6341 9.14298 15.4 9.04651C14.6076 8.57085 15.2945 7.37924 16.1032 7.82838C16.1032 7.82836 17.9296 8.88305 17.9296 8.88305C18.5524 9.21421 18.2683 10.222 17.5774 10.1952Z" fill="#196164"/>
<path d="M15.7523 18.2172C15.0621 18.2436 14.7766 17.2364 15.4001 16.905L17.2266 15.8503C18.0321 15.4013 18.7239 16.5922 17.9297 17.0685C17.6867 17.1698 16.0046 18.2845 15.7523 18.2172Z" fill="#196164"/>
<path d="M28.7872 25.3125C30.3614 23.8566 29.2391 21.0464 27.0703 21.0938L25.3125 21.0938V16.875C25.3125 15.3239 24.0512 14.0625 22.5 14.0625C20.9489 14.0625 19.6875 15.3239 19.6875 16.875V21.0938H17.9297C15.7608 21.0461 14.6387 23.8575 16.2129 25.3125C14.6386 26.7684 15.761 29.5786 17.9298 29.5312L18.9844 29.5312C18.5592 35.1344 26.4423 35.1309 26.0157 29.5312H27.0704C29.2393 29.5789 30.3613 26.7675 28.7872 25.3125ZM16.875 23.5547C16.875 22.9731 17.3481 22.5 17.9297 22.5H27.0704C27.6519 22.5 28.125 22.9731 28.125 23.5547C28.125 24.1363 27.6519 24.6094 27.0704 24.6094H17.9297C17.3481 24.6094 16.875 24.1363 16.875 23.5547ZM27.0704 28.125H17.9297C16.5465 28.1012 16.5416 26.0404 17.9298 26.0156H27.0704C28.4536 26.0395 28.4585 28.1002 27.0704 28.125Z" fill="#196164"/>
</svg>
