<svg width="45" height="45" viewBox="0 0 45 45" fill="none" xmlns="http://www.w3.org/2000/svg">
<path d="M22.5001 11.436C21.9171 11.436 21.4159 11.7993 21.2236 12.3616L20.3584 15.0231H17.5253C16.9245 15.0231 16.4185 15.4007 16.2372 15.9851C16.0532 16.5749 16.2667 17.2039 16.7686 17.5492L18.9371 19.042L18.0794 21.5483C17.8831 22.123 18.0726 22.7526 18.5512 23.1152C19.0176 23.4686 19.6317 23.482 20.1119 23.1495L22.5001 21.5023L24.8875 23.1495C25.3696 23.4825 25.9834 23.4681 26.449 23.1152C26.9276 22.7527 27.1171 22.123 26.9207 21.5483L26.05 19.0537L28.2315 17.5492C28.7334 17.2039 28.947 16.5749 28.763 15.9851C28.5817 15.4007 28.0756 15.0231 27.4748 15.0231L24.696 15.0492L23.7765 12.3616C23.5843 11.7993 23.083 11.436 22.5001 11.436Z" fill="#196164"/>
<path d="M36.5626 11.436C35.9796 11.436 35.4784 11.7993 35.2861 12.3616L34.4209 15.0231H31.5878C30.987 15.0231 30.481 15.4007 30.2997 15.9851C30.1157 16.5749 30.3292 17.2039 30.8311 17.5492L32.9996 19.042L32.1419 21.5483C31.9456 22.123 32.1351 22.7526 32.6137 23.1152C33.0801 23.4686 33.6942 23.482 34.1744 23.1495L36.5626 21.5023L38.95 23.1495C39.4321 23.4825 40.0459 23.4681 40.5115 23.1152C40.9901 22.7527 41.1796 22.123 40.9832 21.5483L40.1125 19.0537L42.294 17.5492C42.7959 17.2039 43.0095 16.5749 42.8255 15.9851C42.6442 15.4007 42.1381 15.0231 41.5373 15.0231L38.7585 15.0492L37.839 12.3616C37.6468 11.7993 37.1455 11.436 36.5626 11.436ZM38.7042 16.4293L41.4961 16.3916L39.314 17.8967C38.8058 18.2476 38.5923 18.906 38.7949 19.4979L39.6374 21.9149C36.0566 19.4847 37.0873 19.4617 33.5077 21.9012L34.3303 19.4979C34.5329 18.906 34.3193 18.2476 33.8105 17.896L31.5878 16.4293C35.8328 16.3711 35.1653 17.0773 36.5626 12.9755L37.4284 15.5051C37.618 16.0578 38.1309 16.4293 38.7042 16.4293Z" fill="#196164"/>
<path d="M43.0911 18.7075L42.1875 19.3305V20.7308L42.3111 21.0847C42.5586 21.8099 42.501 22.5757 42.1875 23.2261V23.3891C42.1875 24.9402 40.9261 26.2016 39.375 26.2016H5.625C4.07387 26.2016 2.8125 24.9402 2.8125 23.3891V19.3293C2.44616 19.0646 1.68012 18.6061 1.40625 18.2517V23.3891C1.40625 25.7154 3.29865 27.6078 5.625 27.6078H39.375C41.7014 27.6078 43.5938 25.7154 43.5938 23.3891V18.2517C43.4454 18.4191 43.2823 18.576 43.0911 18.7075Z" fill="#196164"/>
<path d="M39.375 7.21729H5.625C3.29865 7.21729 1.40625 9.10968 1.40625 11.436V14.5538C1.77536 14.1336 2.2628 13.8367 2.8125 13.703V11.436C2.8125 9.88491 4.07387 8.62354 5.625 8.62354H39.375C40.9261 8.62354 42.1875 9.88491 42.1875 11.436V13.7048C42.7386 13.8394 43.2254 14.1358 43.5938 14.5547V11.436C43.5938 9.10968 41.7014 7.21729 39.375 7.21729Z" fill="#196164"/>
<path d="M14.7005 15.9851C14.5192 15.4007 14.0131 15.0231 13.4123 15.0231L10.6335 15.0492L9.71405 12.3609C9.52179 11.7993 9.02054 11.436 8.43758 11.436C7.85462 11.436 7.35336 11.7993 7.1611 12.3609C7.1611 12.3616 6.29593 15.0231 6.29593 15.0231H3.46283C2.86201 15.0231 2.35595 15.4007 2.17468 15.9851C1.99066 16.5749 2.2042 17.2039 2.70614 17.5492L4.87457 19.042L4.01695 21.5483C3.82056 22.123 4.01008 22.7526 4.48867 23.1152C4.95508 23.4686 5.56916 23.482 6.04942 23.1495L8.43757 21.5023L10.825 23.1495C11.3071 23.4825 11.9209 23.4681 12.3865 23.1152C12.8651 22.7526 13.0546 22.123 12.8582 21.5483L11.9875 19.0537L14.169 17.5492C14.6709 17.2039 14.8845 16.5749 14.7005 15.9851Z" fill="#196164"/>
<path d="M42.4883 30.3085C42.2569 29.8004 41.7666 29.4845 41.2084 29.4845H39.9409V26.2017C39.9409 25.4264 39.3098 24.7954 38.5346 24.7954H34.3159C33.5406 24.7954 32.9096 25.4264 32.9096 26.2017V29.4845H31.6421C30.4723 29.442 29.7792 30.9596 30.5819 31.8143C30.5819 31.8143 35.3651 37.3054 35.3651 37.3054C35.8948 37.9416 36.9557 37.9423 37.4854 37.3054C37.4854 37.3054 42.2686 31.8143 42.2686 31.8143C42.6353 31.3934 42.7197 30.8166 42.4883 30.3085Z" fill="#C4F500"/>
</svg>
