<svg width="88" height="88" viewBox="0 0 88 88" fill="none" xmlns="http://www.w3.org/2000/svg">
<path d="M77 8.25H11C6.45069 8.25 2.75 11.9507 2.75 16.5V56.375C2.75 60.9243 6.45069 64.625 11 64.625H37.125V68.75H34.375C31.3417 68.75 28.875 71.2167 28.875 74.25C28.875 77.2833 31.3417 79.75 34.375 79.75H53.625C56.6583 79.75 59.125 77.2833 59.125 74.25C59.125 71.2167 56.6583 68.75 53.625 68.75H50.875V64.625H77C81.5493 64.625 85.25 60.9243 85.25 56.375V16.5C85.25 11.9507 81.5493 8.25 77 8.25ZM11 11H77C80.0333 11 82.5 13.4667 82.5 16.5V53.5858C81.2464 55.2693 79.2587 56.375 77 56.375H11C8.74129 56.375 6.75356 55.2692 5.5 53.5858V16.5C5.5 13.4667 7.96668 11 11 11ZM53.625 71.5C57.2446 71.593 57.2559 76.9038 53.6249 77H34.375C30.7538 76.9063 30.7455 71.5959 34.3751 71.5H37.7078C40.0022 76.9461 47.9996 76.9434 50.2922 71.5H53.625Z" fill="#196164"/>
<path d="M38.5 30.25H33C30.7218 30.25 28.875 32.0968 28.875 34.375V49.5C28.875 51.7782 30.7218 53.625 33 53.625H38.5C40.7782 53.625 42.625 51.7782 42.625 49.5V34.375C42.625 32.0968 40.7782 30.25 38.5 30.25Z" fill="#196164"/>
<path d="M22 38.5H16.5C14.2218 38.5 12.375 40.3468 12.375 42.625V49.5C12.375 51.7782 14.2218 53.625 16.5 53.625H22C24.2782 53.625 26.125 51.7782 26.125 49.5V42.625C26.125 40.3468 24.2782 38.5 22 38.5Z" fill="#196164"/>
<path d="M71.5 23.375H66C63.7218 23.375 61.875 25.2218 61.875 27.5V49.5C61.875 51.7782 63.7218 53.625 66 53.625H71.5C73.7782 53.625 75.625 51.7782 75.625 49.5V27.5C75.625 25.2218 73.7782 23.375 71.5 23.375Z" fill="#196164"/>
<path d="M49.4999 53.625H54.9999C60.4377 53.483 60.4395 45.5171 54.9998 45.375H49.4999C44.0621 45.517 44.0603 53.4829 49.4999 53.625Z" fill="#196164"/>
<path d="M71.0972 16.9029L68.3472 14.1529C67.0706 12.8869 65.1368 14.8207 66.403 16.0973C66.4029 16.0972 66.8057 16.5001 66.8057 16.5001H63.25C59.4594 16.5001 56.3751 19.5844 56.3751 23.3751V34.3751C56.2291 39.814 48.2696 39.815 48.1251 34.3749V30.2501C48.1251 26.4594 45.0407 23.3751 41.2501 23.3751H27.5001C23.7094 23.3751 20.6251 26.4594 20.6251 30.2501C20.6251 31.0087 20.0087 31.6251 19.2501 31.6251H13.7501C11.9586 31.6486 11.93 34.345 13.7501 34.3751C13.7501 34.3751 19.2501 34.3751 19.2501 34.3751C21.5247 34.3751 23.3751 32.5247 23.3751 30.2501C23.3751 27.9754 25.2254 26.1251 27.5001 26.1251H41.2501C43.5247 26.1251 45.3751 27.9754 45.3751 30.2501V34.3751C45.6944 43.4695 58.8033 43.4751 59.125 34.3749V23.3751C59.125 21.1004 60.9754 19.2501 63.25 19.2501H66.8057L66.4029 19.6529C65.1372 20.9294 67.0704 22.8635 68.3473 21.5972C68.3472 21.5972 71.0972 18.8472 71.0972 18.8472C71.6343 18.3101 71.6343 17.44 71.0972 16.9029Z" fill="#C4F500"/>
</svg>
