<svg width="88" height="88" viewBox="0 0 88 88" fill="none" xmlns="http://www.w3.org/2000/svg">
<path d="M38.5 56.0908C38.5 51.9142 41.8858 48.5283 46.0625 48.5283H63.9375C73.9435 48.8719 73.9502 63.3076 63.9374 63.6533H46.0625C41.8858 63.6533 38.5 60.2675 38.5 56.0908Z" fill="#196164"/>
<path d="M63.9375 65.0283H46.0625C34.2269 64.5812 34.2209 47.6026 46.0627 47.1533C46.0626 47.1533 63.9375 47.1533 63.9375 47.1533C75.7732 47.6005 75.7792 64.5791 63.9375 65.0283ZM46.0625 49.9033C37.8904 50.1609 37.8829 62.0186 46.0627 62.2783C46.0625 62.2783 63.9375 62.2783 63.9375 62.2783C72.1097 62.0208 72.1172 50.163 63.9374 49.9033H46.0625Z" fill="#196164"/>
<path d="M75.625 16.9034C75.66 15.0972 78.3403 15.0974 78.375 16.9034C78.34 18.7096 75.6597 18.7093 75.625 16.9034ZM70.125 16.9034C70.16 15.0972 72.8403 15.0974 72.875 16.9034C72.84 18.7096 70.1597 18.7093 70.125 16.9034ZM64.625 16.9034C64.66 15.0972 67.3403 15.0974 67.375 16.9034C67.34 18.7096 64.6597 18.7093 64.625 16.9034Z" fill="#196164"/>
<path d="M37.125 22.4033H31.625C26.1873 22.5453 26.1854 30.5113 31.6251 30.6533H37.125C42.5628 30.5114 42.5646 22.5454 37.125 22.4033Z" fill="#196164"/>
<path d="M53.625 22.4033H48.125C42.6873 22.5453 42.6854 30.5113 48.1251 30.6533H53.625C59.0628 30.5114 59.0646 22.5454 53.625 22.4033Z" fill="#196164"/>
<path d="M74.2499 22.4033H64.6249C59.1884 22.5448 59.1843 30.511 64.6251 30.6533H74.2499C79.6865 30.5118 79.6905 22.5456 74.2499 22.4033Z" fill="#196164"/>
<path d="M50.875 36.1533H28.875C27.0743 36.1256 27.062 33.4337 28.8751 33.4033H50.875C52.6756 33.4311 52.6879 36.123 50.875 36.1533Z" fill="#196164"/>
<path d="M77 36.1533H56.375C55.615 36.1533 55 35.5383 55 34.7783C55 34.0183 55.615 33.4033 56.375 33.4033H77C78.8011 33.4312 78.8126 36.123 77 36.1533Z" fill="#196164"/>
<path d="M50.875 41.6533H28.875C27.0743 41.6256 27.062 38.9337 28.8751 38.9033H50.875C52.6756 38.9311 52.6879 41.623 50.875 41.6533Z" fill="#196164"/>
<path d="M77 41.6533H56.375C55.615 41.6533 55 41.0383 55 40.2783C55 39.5183 55.615 38.9033 56.375 38.9033H77C78.8011 38.9312 78.8126 41.623 77 41.6533Z" fill="#196164"/>
<path d="M37.125 47.1533H28.875C27.07 47.1242 27.0657 44.4332 28.8751 44.4033H37.125C38.9301 44.4324 38.9343 47.1234 37.125 47.1533Z" fill="#196164"/>
<path d="M77 10.0283H11C6.45069 10.0283 2.75 13.729 2.75 18.2783V62.2783C2.75 66.8276 6.45069 70.5283 11 70.5283H77C81.5493 70.5283 85.25 66.8276 85.25 62.2783V18.2783C85.25 13.729 81.5493 10.0283 77 10.0283ZM19.25 51.2783H12.375C10.5695 51.2491 10.566 48.5582 12.3751 48.5283C12.375 48.5283 19.25 48.5283 19.25 48.5283C21.0555 48.5576 21.059 51.2485 19.25 51.2783ZM19.25 45.7783H8.25C6.44578 45.7495 6.43999 43.0583 8.25006 43.0283C8.25 43.0283 19.25 43.0283 19.25 43.0283C21.0542 43.0572 21.06 45.7483 19.25 45.7783ZM19.25 40.2783H8.25C6.44578 40.2495 6.43999 37.5583 8.25006 37.5283C8.25 37.5283 19.25 37.5283 19.25 37.5283C21.0542 37.5572 21.06 40.2483 19.25 40.2783ZM13.75 34.7783C9.95934 34.7783 6.875 31.694 6.875 27.9033C7.19812 18.8043 20.3032 18.8066 20.625 27.9034C20.625 31.694 17.5407 34.7783 13.75 34.7783ZM82.5 62.2783C82.5 65.3116 80.0333 67.7783 77 67.7783H26.125V12.7783H77C80.0333 12.7783 82.5 15.245 82.5 18.2783V62.2783Z" fill="#196164"/>
<path d="M78.1306 71.3259L75.2141 68.408L77.7224 65.8997C79.9585 63.81 78.8931 59.7357 75.9176 59.0113C75.9177 59.0113 58.4925 54.1317 58.4925 54.1317C56.5118 53.5125 54.4802 55.535 55.1035 57.5209C55.1034 57.5208 59.983 74.946 59.983 74.946C60.7084 77.9194 64.7807 78.9883 66.8715 76.7506C66.8715 76.7507 69.3798 74.2424 69.3798 74.2424L72.2976 77.1589C72.8334 77.6946 73.5383 77.9632 74.2419 77.9632C75.7256 78.1205 77.1617 76.0841 78.1306 75.2145C79.2035 74.143 79.2035 72.3974 78.1306 71.3259Z" fill="#C4F500"/>
</svg>
