<svg width="88" height="88" viewBox="0 0 88 88" fill="none" xmlns="http://www.w3.org/2000/svg">
<path d="M77 37.8125H41.25V35.0625C41.25 32.0237 38.7888 29.5625 35.75 29.5625H27.5C24.4613 29.5625 22 32.0237 22 35.0625V39.1875H24.75V35.0625C24.75 33.5499 25.9875 32.3125 27.5 32.3125H35.75C37.2626 32.3125 38.5 33.5499 38.5 35.0625V39.1875C38.5 39.9437 39.1188 40.5625 39.875 40.5625H77C80.0388 40.5625 82.5 43.0237 82.5 46.0625V68.0625C82.5 71.1012 80.0388 73.5625 77 73.5625H44V76.3125H77C81.5513 76.3125 85.25 72.6138 85.25 68.0625V46.0625C85.25 41.5113 81.5513 37.8125 77 37.8125Z" fill="#196164"/>
<path d="M78.375 10.3125V35.145C78.0939 34.9788 63.9453 35.0948 63.25 35.0625V17.1875C63.25 14.1487 60.7888 11.6875 57.75 11.6875H35.75C32.7113 11.6875 30.25 14.1487 30.25 17.1875V26.8125H27.5V17.1875C27.5 12.6363 31.1988 8.9375 35.75 8.9375H39.9988C40.6588 5.04622 44.0413 2.0625 48.125 2.0625H70.125C74.6763 2.0625 78.375 5.76125 78.375 10.3125Z" fill="#196164"/>
<path d="M55.0001 19.9375H38.5001C36.6978 19.9088 36.6888 17.218 38.5002 17.1875H55.0001C56.8024 17.2162 56.8115 19.907 55.0001 19.9375Z" fill="#196164"/>
<path d="M55.0001 26.8125H38.5001C36.6978 26.7838 36.6888 24.093 38.5002 24.0625H55.0001C56.8024 24.0912 56.8115 26.782 55.0001 26.8125Z" fill="#196164"/>
<path d="M56.375 32.3125C56.375 33.0687 55.7562 33.6875 55 33.6875H43.8763C43.725 32.6975 43.3812 31.7625 42.8862 30.9375H55C55.7562 30.9375 56.375 31.5563 56.375 32.3125Z" fill="#196164"/>
<path d="M53.6248 40.5625H45.3748C43.5699 40.533 43.5656 37.8428 45.3749 37.8125H53.6248C55.4297 37.842 55.434 40.5322 53.6248 40.5625Z" fill="#196164"/>
<path d="M82.4469 61.7636H81.1203C80.7497 60.3698 80.2018 59.0458 79.4828 57.8051L80.4167 56.8718C81.5031 55.827 81.5039 53.9509 80.416 52.908L78.3965 50.8884C77.3041 49.7954 75.527 49.7954 74.4333 50.8884L73.498 51.823C72.2566 51.106 70.9313 50.5595 69.5375 50.1902V48.8649C69.5375 47.3193 68.2807 46.0625 66.7352 46.0625H63.8791C62.3335 46.0625 61.076 47.3193 61.076 48.8649V50.1929C59.6829 50.5635 58.3576 51.1113 57.1175 51.8297L56.185 50.8978C55.1242 49.8357 53.2759 49.8384 52.2204 50.8965L50.2009 52.916C49.1086 54.009 49.1086 55.7855 50.2009 56.8786L51.1362 57.8145C50.4185 59.0552 49.8713 60.3805 49.5027 61.7743H48.178C46.6325 61.7743 45.375 63.0325 45.375 64.578V67.4327C45.375 68.9783 46.6325 70.2364 48.178 70.2364H49.5047C49.8753 71.6302 50.4225 72.9542 51.1415 74.1949L50.2083 75.1282C49.1153 76.2212 49.1153 77.999 50.2083 79.092L52.2285 81.1129C53.3222 82.2046 55.1 82.2032 56.1924 81.1116L57.1263 80.1757C58.3677 80.894 59.693 81.4405 61.0875 81.8098V83.1351C61.0875 84.6807 62.3443 85.9375 63.8898 85.9375H66.7459C68.2914 85.9375 69.5489 84.6807 69.5489 83.1351V81.8071C70.9421 81.4365 72.2674 80.8887 73.5074 80.1703L74.4413 81.1049C75.533 82.1952 77.3115 82.1965 78.4045 81.1035L80.4227 79.0853C81.5109 78.0408 81.5114 76.1656 80.4234 75.1201L79.4895 74.1856C80.2065 72.9448 80.7537 71.6195 81.1223 70.2257H82.4469C83.9925 70.2257 85.25 68.9675 85.25 67.422V64.5659C85.25 63.0204 83.9925 61.7636 82.4469 61.7636Z" fill="#C4F500"/>
<path d="M65.3125 54.3125C58.8679 54.3125 53.625 59.5562 53.625 66C54.2675 81.505 76.3599 81.5005 77 65.9999C77 59.5562 71.7571 54.3125 65.3125 54.3125Z" fill="#196164"/>
<path d="M33 41.9375H11C6.45069 41.9375 2.75 45.6382 2.75 50.1875V77.6875C2.75 82.2368 6.45069 85.9375 11 85.9375H33C37.5493 85.9375 41.25 82.2368 41.25 77.6875V50.1875C41.25 45.6382 37.5493 41.9375 33 41.9375ZM26.125 73.5625H17.875C16.0701 73.533 16.0658 70.8428 17.8751 70.8125H26.125C27.9299 70.842 27.9342 73.5322 26.125 73.5625ZM30.25 66.6875H13.75C11.9477 66.6588 11.9387 63.968 13.7501 63.9375H30.25C32.0523 63.9662 32.0613 66.657 30.25 66.6875ZM30.25 59.8125H13.75C11.9477 59.7838 11.9387 57.093 13.7501 57.0625H30.25C32.0523 57.0912 32.0613 59.782 30.25 59.8125ZM30.25 52.9375H13.75C11.9477 52.9088 11.9387 50.218 13.7501 50.1875H30.25C32.0523 50.2162 32.0613 52.907 30.25 52.9375Z" fill="#196164"/>
</svg>
