<svg width="88" height="88" viewBox="0 0 88 88" fill="none" xmlns="http://www.w3.org/2000/svg">
<path d="M57.0625 8.25H15.8125C13.5378 8.25 11.6875 10.1003 11.6875 12.375V75.625C11.6875 77.8997 13.5378 79.75 15.8125 79.75H57.0625C59.3372 79.75 61.1875 77.8997 61.1875 75.625V12.375C61.1875 10.1003 59.3372 8.25 57.0625 8.25ZM25.4375 70.125H19.9375C18.1316 70.0956 18.1289 67.4048 19.9376 67.375H25.4375C27.2434 67.4044 27.2461 70.0952 25.4375 70.125ZM35.0625 61.875C35.0625 62.635 34.4475 63.25 33.6875 63.25H22.6875C20.4128 63.25 18.5625 61.3997 18.5625 59.125V56.375C18.5625 54.1003 20.4128 52.25 22.6875 52.25H33.6875C34.4475 52.25 35.0625 52.865 35.0625 53.625V61.875ZM52.9375 42.625C52.9375 47.1743 49.2368 50.875 44.6875 50.875H26.8125C22.2632 50.875 18.5625 47.1743 18.5625 42.625V26.125C18.5625 21.5757 22.2632 17.875 26.8125 17.875H44.6875C49.2368 17.875 52.9375 21.5757 52.9375 26.125V42.625Z" fill="#196164"/>
<path d="M21.3125 56.375V59.125C21.3125 59.8837 21.9288 60.5 22.6875 60.5H32.3125V55H22.6875C21.9288 55 21.3125 55.6163 21.3125 56.375Z" fill="#196164"/>
<path d="M68.0625 12.375H66.6875C67.2084 7.33161 63.6502 2.75329 58.4374 2.75004L14.4375 2.75C9.88819 2.75 6.1875 6.45069 6.1875 11V77C6.1875 81.5493 9.88819 85.25 14.4375 85.25H58.4375C62.9868 85.25 66.6875 81.5493 66.6875 77V30.25H68.0625C70.3372 30.25 72.1875 28.3997 72.1875 26.125V16.5C72.1875 14.2253 70.3372 12.375 68.0625 12.375ZM63.9375 77C63.9375 80.0333 61.4708 82.5 58.4375 82.5H14.4375C11.4042 82.5 8.9375 80.0333 8.9375 77V11C8.9375 7.96668 11.4042 5.5 14.4375 5.5H58.4375C61.4708 5.5 63.9375 7.96668 63.9375 11V77Z" fill="#196164"/>
<path d="M76.3125 39.875H29.5625C26.5249 39.875 24.0625 42.3374 24.0625 45.375V67.375C24.0625 70.4126 26.5249 72.875 29.5625 72.875H76.3125C79.3501 72.875 81.8125 70.4126 81.8125 67.375V45.375C81.8125 42.3374 79.3501 39.875 76.3125 39.875Z" fill="#C4F500"/>
<path d="M49.0029 47.1528C46.6053 46.3634 43.7918 46.7034 41.9373 48.321C37.1361 44.2748 28.9667 48.4851 29.5719 54.8108C29.8384 60.5381 36.3768 65.2828 42.2165 65.972C47.8858 64.7955 54.0477 60.4839 54.3029 54.8107C54.464 51.2483 52.4337 48.3143 49.0029 47.1528Z" fill="#196164"/>
<path d="M72.1875 59.1251C71.1434 59.1251 70.1997 59.5275 69.4724 60.1691L63.8686 57.0559C63.9564 56.6137 63.9564 56.1364 63.8686 55.6942L69.4724 52.581C71.9936 54.948 76.3893 52.9842 76.3124 49.4999C76.0684 43.6003 67.3654 44.3323 68.1313 50.1809L62.5275 53.2941C60.0058 50.9271 55.611 52.8908 55.6875 56.3752C55.611 59.8587 60.0064 61.8237 62.5275 59.456L68.1313 62.5692C67.6619 65.0427 69.6783 67.4004 72.1875 67.375C77.6265 67.2328 77.6259 59.2667 72.1875 59.1251Z" fill="#196164"/>
</svg>
