<svg width="88" height="88" viewBox="0 0 88 88" fill="none" xmlns="http://www.w3.org/2000/svg">
<path d="M58.4375 19.25H41.9375C41.1775 19.25 40.5625 18.635 40.5625 17.875C40.5625 17.115 41.1775 16.5 41.9375 16.5H58.4375C60.24 16.5283 60.249 19.2198 58.4375 19.25Z" fill="#196164"/>
<path d="M58.4375 26.125H41.9375C41.1775 26.125 40.5625 25.51 40.5625 24.75C40.5625 23.99 41.1775 23.375 41.9375 23.375H58.4375C60.24 23.4033 60.249 26.0948 58.4375 26.125Z" fill="#196164"/>
<path d="M54.3124 39.875H46.0624C44.2573 39.8459 44.2531 37.1549 46.0625 37.125H54.3124C56.1175 37.1541 56.1217 39.8451 54.3124 39.875Z" fill="#196164"/>
<path d="M61.1875 8.25H39.1875C34.6382 8.25 30.9375 11.9507 30.9375 16.5V26.125H33.6875V16.5C33.6875 13.4667 36.1542 11 39.1875 11H61.1875C64.2208 11 66.6875 13.4667 66.6875 16.5V44C66.6875 44.9486 66.4243 45.8281 66 46.6078V50.6874C68.0777 49.1879 69.4375 46.7525 69.4375 44V16.5C69.4375 11.9507 65.7368 8.25 61.1875 8.25Z" fill="#196164"/>
<path d="M55 35.75H48.125V34.375C48.125 31.3417 45.6583 28.875 42.625 28.875H23.375C20.3417 28.875 17.875 31.3417 17.875 34.375V35.75H11C6.45069 35.75 2.75 39.4507 2.75 44V71.5C2.75 76.0493 6.45069 79.75 11 79.75H55C59.5493 79.75 63.25 76.0493 63.25 71.5V44C63.25 39.4507 59.5493 35.75 55 35.75ZM57.75 50.875H48.8528C46.2693 50.875 43.9463 52.2742 42.7888 54.526C38.9103 62.4225 27.0889 62.4227 23.2112 54.5258C22.0537 52.2742 19.7307 50.875 17.1472 50.875H8.25C6.46015 50.8515 6.42858 48.1555 8.25007 48.125C8.25 48.125 17.1472 48.125 17.1472 48.125C20.766 48.125 24.0262 50.0962 25.6577 53.2692C28.51 59.1784 37.4908 59.1788 40.3423 53.2689C41.9737 50.0962 45.234 48.125 48.8528 48.125H57.75C59.5408 48.1511 59.5713 50.843 57.75 50.875ZM20.625 34.375C20.625 32.859 21.859 31.625 23.375 31.625H42.625C44.141 31.625 45.375 32.859 45.375 34.375V35.75H20.625V34.375Z" fill="#196164"/>
<path d="M77 28.875H55C50.4437 28.875 46.75 32.5687 46.75 37.125V64.625C46.75 69.1814 50.4437 72.875 55 72.875H77C81.5564 72.875 85.25 69.1814 85.25 64.625V37.125C85.25 32.5687 81.5564 28.875 77 28.875Z" fill="#C4F500"/>
<path d="M74.25 39.875H57.75C56.99 39.875 56.375 39.26 56.375 38.5C56.375 37.74 56.99 37.125 57.75 37.125H74.25C76.0525 37.1533 76.0615 39.8448 74.25 39.875Z" fill="#196164"/>
<path d="M74.25 46.75H57.75C56.99 46.75 56.375 46.135 56.375 45.375C56.375 44.615 56.99 44 57.75 44H74.25C76.0525 44.0283 76.0615 46.7198 74.25 46.75Z" fill="#196164"/>
<path d="M74.25 53.625H57.75C56.99 53.625 56.375 53.01 56.375 52.25C56.375 51.49 56.99 50.875 57.75 50.875H74.25C76.0525 50.9033 76.0615 53.5948 74.25 53.625Z" fill="#196164"/>
<path d="M70.1249 60.5H61.8749C60.0698 60.4709 60.0656 57.7799 61.875 57.75H70.1249C71.93 57.7791 71.9342 60.4701 70.1249 60.5Z" fill="#196164"/>
</svg>
