<svg width="88" height="88" viewBox="0 0 88 88" fill="none" xmlns="http://www.w3.org/2000/svg">
<path d="M56.3765 17.1876C55.0268 17.2392 54.4685 15.2696 55.6878 14.6215L59.2595 12.559C60.8357 11.681 62.1872 14.01 60.6344 14.9411C60.1593 15.1393 56.8699 17.3192 56.3765 17.1876Z" fill="#196164"/>
<path d="M56.3765 17.1876C55.0268 17.2392 54.4685 15.2696 55.6878 14.6215L59.2595 12.559C60.8357 11.681 62.1872 14.01 60.6344 14.9411C60.1593 15.1393 56.8699 17.3192 56.3765 17.1876Z" fill="#196164"/>
<path d="M61.7975 48.9315L44.3725 44.0525C43.34 43.7634 42.3886 44.7148 42.6777 45.7474L47.5566 63.1723C48.1237 65.1977 50.6621 65.8626 52.1494 64.3754L55.6304 60.8944L59.5195 64.7834C60.0565 65.3204 60.9271 65.3204 61.464 64.7834L63.4086 62.8389C63.9455 62.3019 63.9455 61.4313 63.4086 60.8944L59.5195 57.0053L63.0005 53.5242C64.4878 52.037 63.8228 49.4986 61.7975 48.9315Z" fill="#196164"/>
<path d="M60.4921 66.56C59.7885 66.56 59.0835 66.2914 58.5477 65.7556L55.6299 62.8391L53.1216 65.3474C51.0315 67.5823 46.9576 66.5188 46.2332 63.5426C46.2332 63.5428 41.3535 46.1176 41.3535 46.1176C40.7341 44.1341 42.7574 42.1076 44.7427 42.7285C44.7427 42.7284 62.1679 47.6081 62.1679 47.6081C65.1406 48.3334 66.2114 52.4062 63.9724 54.4965C63.9725 54.4965 61.4642 57.0048 61.4642 57.0048L64.3807 59.9226C65.4536 60.9942 65.4536 62.7398 64.3807 63.8113C63.4099 64.6817 61.9782 66.7162 60.4921 66.56ZM55.6299 59.5198C55.9817 59.5198 56.3335 59.6541 56.6021 59.9226L60.4921 63.8113L62.4364 61.867L58.5477 57.9769C58.0106 57.4398 58.0106 56.5697 58.5477 56.0326L62.0282 52.5521C62.5317 52.0486 62.4472 51.4605 62.3867 51.2309C62.3263 51.0012 62.1128 50.448 61.4266 50.256L44.0015 45.3764L48.8811 62.8015C49.0731 63.4877 49.6263 63.7012 49.856 63.7616C50.0869 63.8234 50.6737 63.908 51.1773 63.4031L54.6577 59.9226C54.9263 59.6541 55.2781 59.5198 55.6299 59.5198Z" fill="#196164"/>
<path d="M44.0001 16.5C43.2401 16.5 42.6251 15.885 42.6251 15.125V11C42.6251 10.24 43.2401 9.625 44.0001 9.625C44.7601 9.625 45.3751 10.24 45.3751 11V15.125C45.3751 15.885 44.7601 16.5 44.0001 16.5Z" fill="#196164"/>
<path d="M34.3738 17.1875C33.8977 17.3272 30.5735 15.1298 30.1158 14.9411C28.5655 14.0113 29.911 11.6801 31.4909 12.559C31.4908 12.559 35.0626 14.6215 35.0626 14.6215C36.2805 15.2691 35.7249 17.2399 34.3738 17.1875Z" fill="#196164"/>
<path d="M79.7502 67.375H76.257C77.5692 65.9136 78.3752 63.9891 78.3752 61.875V23.375C78.3752 18.8257 74.6745 15.125 70.1252 15.125H63.8161C63.418 16.4424 62.2285 17.2776 61.052 17.875H70.1252C73.1585 17.875 75.6252 20.3417 75.6252 23.375V61.875C75.6252 64.9083 73.1585 67.375 70.1252 67.375H17.8752C14.8418 67.375 12.3752 64.9083 12.3752 61.875V23.375C12.3752 20.3417 14.8418 17.875 17.8752 17.875H29.6973C28.5194 17.2783 27.3329 16.4416 26.9343 15.125H17.8752C13.3258 15.125 9.62516 18.8257 9.62516 23.375V61.875C9.62516 63.9891 10.4312 65.9136 11.7433 67.375H8.25016C0.99901 67.5976 0.967659 78.1416 8.25028 78.375C8.25015 78.375 79.7502 78.375 79.7502 78.375C86.9941 78.1554 87.039 67.6101 79.7502 67.375ZM79.7502 75.625H52.7085C51.9274 74.4288 51.0728 72.789 49.4033 72.8751C49.4034 72.875 38.5969 72.875 38.5969 72.875C36.9177 72.7947 36.0771 74.4253 35.2918 75.625H8.25016C4.64471 75.5373 4.6073 70.2236 8.25025 70.125C8.25015 70.125 79.7502 70.125 79.7502 70.125C83.3501 70.2107 83.3977 75.5256 79.7502 75.625Z" fill="#196164"/>
<path d="M34.3738 17.1875C33.8977 17.3272 30.5735 15.1298 30.1158 14.9411C28.5655 14.0113 29.911 11.6801 31.4909 12.559C31.4908 12.559 35.0626 14.6215 35.0626 14.6215C36.2805 15.2691 35.7249 17.2399 34.3738 17.1875Z" fill="#196164"/>
<path d="M61.8751 21.2493H57.7501C55.9438 21.2788 55.9418 23.9695 57.7502 23.9993H61.8751C63.6814 23.9697 63.6834 21.2791 61.8751 21.2493Z" fill="#196164"/>
<path d="M60.6344 30.3091L57.0626 28.2466C55.4844 27.3666 54.136 29.6986 55.6877 30.6287C56.1628 30.8269 59.4522 33.0068 59.9455 32.8752C61.2953 32.9268 61.8536 30.9572 60.6344 30.3091Z" fill="#196164"/>
<path d="M43.3126 16.5H49.5001C51.3032 16.4743 51.3102 13.7781 49.5 13.75H43.3126C36.9525 13.9535 36.9541 23.1728 43.3127 23.375H46.0626C47.1999 23.375 48.1251 24.3002 48.1251 25.4375C48.1251 26.5748 47.1999 27.5 46.0626 27.5H39.8751C38.0698 27.5285 38.0662 30.2206 39.8751 30.25H42.6251V33C42.6251 33.76 43.2401 34.375 44.0001 34.375C44.7601 34.375 45.3751 33.76 45.3751 33V30.25C52.1795 30.7625 52.8644 20.9597 46.0625 20.6249L43.3126 20.625C40.6042 20.5791 40.6013 16.5469 43.3126 16.5Z" fill="#196164"/>
<path d="M34.3751 22.6243C34.3751 21.8643 33.7601 21.2493 33.0001 21.2493H28.8751C28.1151 21.2493 27.5001 21.8643 27.5001 22.6243C27.5001 23.3843 28.1151 23.9993 28.8751 23.9993H33.0001C33.7601 23.9993 34.3751 23.3843 34.3751 22.6243Z" fill="#196164"/>
<path d="M68.7502 20.625H65.4608C67.0464 23.2391 64.9438 26.8325 61.8751 26.7493C61.8752 26.7494 59.97 26.7494 59.97 26.7494L62.0095 27.927C65.633 29.9913 64.1084 35.6521 59.9456 35.6251C58.4026 35.7732 55.6261 33.6542 54.3127 33.0108C53.1294 32.3366 52.3514 31.0847 52.2618 29.729C51.2747 31.1503 49.8297 32.2303 48.1252 32.714C48.2744 38.3549 40.09 38.6325 39.8752 33C38.9583 33 38.1187 32.6892 37.4331 32.1813C36.9025 32.9368 33.6538 34.5541 32.866 35.0733C32.2402 35.4345 31.5272 35.6251 30.8048 35.6251C26.6437 35.6525 25.116 29.9904 28.7411 27.9283C28.741 27.9284 30.7813 26.7494 30.7813 26.7494H28.8752C25.8068 26.833 23.7037 23.2383 25.2897 20.625H19.2502C16.9756 20.625 15.1252 22.4754 15.1252 24.75V60.5C15.1252 62.7747 16.9756 64.625 19.2502 64.625H68.7502C71.0249 64.625 72.8752 62.7747 72.8752 60.5V24.75C72.8752 22.4754 71.0249 20.625 68.7502 20.625ZM52.9377 56.375H35.0627C23.2271 55.9278 23.2211 38.9493 35.0628 38.5C35.0627 38.5 52.9377 38.5 52.9377 38.5C64.7733 38.9472 64.7793 55.9257 52.9377 56.375Z" fill="#196164"/>
<path d="M33.6876 28.2466L30.1159 30.3091C28.5619 31.2428 29.9176 33.5682 31.4909 32.6911C31.4909 32.6911 35.0626 30.6286 35.0626 30.6286C36.6141 29.6995 35.2644 27.3659 33.6876 28.2466Z" fill="#196164"/>
<path d="M64.3808 59.9226L61.4643 57.0048L63.9726 54.4965C66.2086 52.4068 65.1433 48.3324 62.1678 47.6081C62.1679 47.608 44.7427 42.7284 44.7427 42.7284C42.7605 42.1108 40.7308 44.131 41.3536 46.1176C41.3536 46.1175 46.2332 63.5427 46.2332 63.5427C46.9586 66.5161 51.0309 67.585 53.1216 65.3473C53.1216 65.3474 55.6299 62.8391 55.6299 62.8391L58.5478 65.7556C59.0835 66.2914 59.7885 66.5599 60.4921 66.5599C61.9758 66.7172 63.4118 64.6809 64.3808 63.8113C65.4537 62.7397 65.4536 60.9941 64.3808 59.9226Z" fill="#C4F500"/>
</svg>
