<svg width="453" height="410" viewBox="0 0 453 410" fill="none" xmlns="http://www.w3.org/2000/svg">
<g opacity="0.07">
<path d="M261.211 234.385H358.479C356.673 255.362 347.071 274.901 331.568 289.146C316.064 303.392 295.785 311.31 274.731 311.339C272.853 311.339 271.053 312.084 269.726 313.412C268.398 314.739 267.653 316.54 267.653 318.417V363.972C267.653 365.849 268.398 367.649 269.726 368.977C271.053 370.304 272.853 371.05 274.731 371.05C354.006 371.05 418.487 306.568 418.487 227.307V77.1094C418.487 75.2321 417.742 73.4318 416.414 72.1044C415.087 70.777 413.286 70.0312 411.409 70.0312H261.211C259.334 70.0312 257.534 70.777 256.206 72.1044C254.879 73.4318 254.133 75.2321 254.133 77.1094V227.307C254.133 229.184 254.879 230.985 256.206 232.312C257.534 233.64 259.334 234.385 261.211 234.385ZM268.29 84.1875H404.331V227.307C404.331 296.39 349.999 353.015 281.809 356.695V325.24C332.672 321.602 372.933 279.062 372.933 227.307C372.933 225.43 372.187 223.63 370.859 222.302C369.532 220.975 367.732 220.229 365.854 220.229H268.29V84.1875ZM48.9385 234.385H146.22C144.418 255.363 134.817 274.904 119.313 289.15C103.808 303.396 83.5273 311.313 62.4719 311.339C60.5946 311.339 58.7943 312.084 57.4669 313.412C56.1395 314.739 55.3937 316.54 55.3937 318.417V363.972C55.3937 365.849 56.1395 367.649 57.4669 368.977C58.7943 370.304 60.5946 371.05 62.4719 371.05C141.747 371.05 206.229 306.568 206.229 227.307V77.1094C206.229 75.2321 205.483 73.4318 204.155 72.1044C202.828 70.777 201.028 70.0312 199.15 70.0312H48.9385C47.0612 70.0312 45.2609 70.777 43.9335 72.1044C42.6061 73.4318 41.8604 75.2321 41.8604 77.1094V227.307C41.8604 229.184 42.6061 230.985 43.9335 232.312C45.2609 233.64 47.0612 234.385 48.9385 234.385ZM56.0166 84.1875H192.072V227.307C192.072 296.39 137.726 353.015 69.55 356.695V325.24C120.413 321.602 160.66 279.062 160.66 227.307C160.66 225.43 159.914 223.63 158.586 222.302C157.259 220.975 155.459 220.229 153.581 220.229H56.0166V84.1875Z" fill="#196164"/>
</g>
</svg>
