<svg width="22" height="16" viewBox="0 0 22 16" fill="none" xmlns="http://www.w3.org/2000/svg">
<path d="M4.59118 0.375164C7.09435 0.375164 9.12522 2.40604 9.12522 4.90921V9.44326C9.12522 12.7966 6.3859 15.4887 3.07983 15.4887C2.22969 15.4887 1.56848 14.8274 1.56848 13.9773C1.56848 13.1744 2.22969 12.466 3.07983 12.466C4.73286 12.466 6.10252 11.1435 6.10252 9.44326V9.20711C5.583 9.3488 5.1107 9.44326 4.59118 9.44326C2.04077 9.44326 0.0571289 7.45961 0.0571289 4.90921C0.0571289 2.40604 2.04077 0.375164 4.59118 0.375164ZM21.216 4.90921V9.44326C21.216 12.7966 18.4767 15.4887 15.1706 15.4887C14.3205 15.4887 13.6593 14.8274 13.6593 13.9773C13.6593 13.1744 14.3205 12.466 15.1706 12.466C16.8237 12.466 18.1933 11.1435 18.1933 9.44326V9.20711C17.6738 9.3488 17.2015 9.44326 16.682 9.44326C14.1316 9.44326 12.1479 7.45961 12.1479 4.90921C12.1479 2.40604 14.1316 0.375164 16.682 0.375164C19.1851 0.375164 21.216 2.40604 21.216 4.90921Z" fill="#196164"/>
</svg>
