<svg width="40" height="40" viewBox="0 0 40 40" fill="none" xmlns="http://www.w3.org/2000/svg">
<path d="M29.6611 8.28296C29.316 8.28296 29.0361 8.00342 29.0361 7.65796V5.78296C29.0361 5.4375 29.316 5.15796 29.6611 5.15796C30.0063 5.15796 30.2861 5.4375 30.2861 5.78296V7.65796C30.2861 8.00342 30.0063 8.28296 29.6611 8.28296Z" fill="#196164"/>
<path d="M26.5652 8.90789C26.3492 8.90789 26.1392 8.7962 26.0232 8.59539L25.0857 6.97185C24.9133 6.67278 25.0155 6.2907 25.3146 6.11797C25.6131 5.94524 25.9951 6.04717 26.1685 6.34685L27.106 7.97039C27.3523 8.37102 27.0308 8.91984 26.5652 8.90789Z" fill="#196164"/>
<path d="M26.5652 8.90789C26.3492 8.90789 26.1392 8.7962 26.0232 8.59539L25.0857 6.97185C24.9133 6.67278 25.0155 6.2907 25.3146 6.11797C25.6131 5.94524 25.9951 6.04717 26.1685 6.34685L27.106 7.97039C27.3523 8.37102 27.0308 8.91984 26.5652 8.90789Z" fill="#196164"/>
<path d="M32.7571 8.90786C32.2917 8.91944 31.9698 8.37128 32.2164 7.97036C32.2164 7.97036 33.1539 6.34683 33.1539 6.34683C33.576 5.64179 34.6354 6.25338 34.2366 6.97185C34.2366 6.97183 33.2991 8.59536 33.2991 8.59536C33.1832 8.79617 32.9732 8.90786 32.7571 8.90786Z" fill="#196164"/>
<path d="M17.8146 26.408H16.5646C15.3332 26.3859 15.3321 24.555 16.5646 24.533H19.3771C20.1976 24.5199 20.1993 23.2965 19.3771 23.283H17.5021V22.033C17.5021 21.6875 17.2222 21.408 16.8771 21.408C16.5319 21.408 16.2521 21.6875 16.2521 22.033V23.3145C13.602 23.7393 13.8696 27.6065 16.5646 27.658H17.8146C18.3315 27.658 18.7521 28.0785 18.7521 28.5955C18.7521 29.1124 18.3315 29.533 17.8146 29.533H15.0021C14.1815 29.5457 14.18 30.7697 15.0021 30.783H16.2521V32.033C16.2521 32.3784 16.5319 32.658 16.8771 32.658C17.2222 32.658 17.5021 32.3784 17.5021 32.033V30.783C20.5954 31.0162 20.9058 26.5596 17.8146 26.408Z" fill="#196164"/>
<path d="M22.3282 16.9911C25.1168 16.7707 24.9871 13.0313 22.1895 12.9705H11.5646C8.77244 13.0298 8.63227 16.7695 11.426 16.9911C1.12842 23.7693 1.42072 38.9968 16.8771 38.9078C32.3351 38.997 32.6241 23.7667 22.3282 16.9911ZM16.8771 37.7633C15.2556 37.7633 13.6039 37.5571 12.0801 37.1079C13.9753 34.6931 13.119 30.8447 10.627 29.533C9.86434 28.996 7.29402 28.9025 5.63539 28.8705C5.78435 24.067 9.39371 18.5402 14.2422 17.004H19.5119C24.464 18.573 28.1271 24.3059 28.1271 29.178C28.1271 35.5079 22.3156 37.7633 16.8771 37.7633Z" fill="#196164"/>
<path d="M11.5646 12.3165H22.1896C24.6995 12.2876 25.1955 8.79087 22.8119 8.07091C24.0053 6.64516 24.0098 4.3238 22.738 3.09124C21.6858 1.98057 19.5199 1.92702 18.5415 3.14804C17.0335 0.0575844 12.7094 0.587278 11.8053 3.82565C9.89873 4.22827 9.7101 6.70017 10.784 8.11982C8.55003 8.97606 9.14769 12.2977 11.5646 12.3165ZM11.5451 5.4057C11.7443 5.10205 12.1774 4.90872 12.4951 5.0822C14.7171 6.46832 17.8497 5.96844 19.4784 3.96954C19.7113 3.68328 20.079 3.51422 20.5145 3.49163C22.9975 3.4712 22.9307 6.83481 21.1458 7.9704H12.2082C11.6354 7.30425 11.0618 6.16767 11.5451 5.4057Z" fill="#196164"/>
<path d="M33.1271 10.1577H20.0021C18.6236 10.1577 17.5021 11.2789 17.5021 12.6577V20.1577C17.5021 21.5365 18.6236 22.6577 20.0021 22.6577H22.4676C22.3681 23.1216 22.0776 23.5171 21.7147 23.6147C21.4663 23.6819 21.2841 23.8943 21.2557 24.15C21.2277 24.4058 21.3592 24.653 21.5875 24.772C23.491 25.806 25.9101 24.6925 26.592 22.6577H33.1271C34.5055 22.6577 35.6271 21.5365 35.6271 20.1577V12.6577C35.6271 11.2789 34.5056 10.1577 33.1271 10.1577Z" fill="#C4F500"/>
<path d="M31.2521 14.5327H21.8771C21.5319 14.5327 21.2521 14.2532 21.2521 13.9077C21.2521 13.5623 21.5319 13.2827 21.8771 13.2827H31.2521C32.0707 13.2956 32.0759 14.5188 31.2521 14.5327Z" fill="#196164"/>
<path d="M31.2521 17.0327H21.8771C21.5319 17.0327 21.2521 16.7532 21.2521 16.4077C21.2521 16.0623 21.5319 15.7827 21.8771 15.7827H31.2521C32.0707 15.7956 32.0759 17.0188 31.2521 17.0327Z" fill="#196164"/>
<path d="M31.2521 19.5327H25.6271C24.8073 19.5195 24.8043 18.2965 25.6271 18.2827H31.2521C32.0719 18.2959 32.0749 19.5189 31.2521 19.5327Z" fill="#196164"/>
</svg>
