<svg width="40" height="40" viewBox="0 0 40 40" fill="none" xmlns="http://www.w3.org/2000/svg">
<path d="M25.8834 18.2848C25.6927 17.65 25.1193 17.2234 24.4564 17.2234H20.6787C20.5774 17.2234 20.4867 17.1593 20.4525 17.0647L19.226 13.6363C18.7979 12.3347 16.8484 12.3335 16.4203 13.6364C16.4203 13.6363 15.1938 17.0647 15.1938 17.0647C15.1596 17.1593 15.0689 17.2234 14.9676 17.2234H11.1898C9.74344 17.1916 9.14048 19.1857 10.3693 19.9578C10.3692 19.9578 13.2773 21.8755 13.2773 21.8755C13.37 21.9371 13.4088 22.0531 13.3716 22.1575L12.2274 25.3545C11.7189 26.6631 13.3019 27.9043 14.451 27.1C14.451 27.1001 17.6913 24.962 17.6913 24.962C17.771 24.9095 17.8744 24.9089 17.9553 24.9626L21.1953 27.1001C22.3262 27.9109 23.9398 26.6472 23.4188 25.3544C23.4189 25.3545 22.2747 22.1575 22.2747 22.1575C22.2375 22.0531 22.2763 21.9371 22.3687 21.8761L25.2774 19.9571C25.8307 19.5922 26.0742 18.9195 25.8834 18.2848Z" fill="#C4F500"/>
<path d="M23.5349 34.3306C23.7091 34.3958 23.913 34.425 24.1179 34.4315L23.5349 34.3306Z" fill="#196164"/>
<path d="M18.5545 33.5975C18.1374 32.876 18.0264 32.0345 18.242 31.2282C11.9024 31.5194 6.55755 26.3324 6.57305 19.9995C6.57304 13.7964 11.6197 8.74945 17.823 8.74945C24.6787 8.68265 30.1263 15.0964 28.908 21.8462L29.6425 21.4222C29.8336 19.6891 31.6212 18.5531 33.1957 18.1727C32.9343 17.8129 32.591 17.5011 32.1651 17.2645C31.3149 16.8157 31.0047 15.6526 31.5157 14.8395C32.7567 12.8765 31.1827 10.2078 28.834 10.3035C27.8911 10.3407 27.0152 9.48795 27.0592 8.52848C27.1578 6.22221 24.4377 4.65703 22.4693 5.94068C21.6555 6.45252 20.4931 6.13978 20.0444 5.29117C18.9772 3.24354 15.8372 3.24905 14.7759 5.34498C14.3275 6.19509 13.1633 6.50591 12.3506 5.9943C10.4372 4.75338 7.69495 6.33542 7.81362 8.6128C7.88654 9.60197 7.02199 10.4753 6.03957 10.4505C3.72119 10.3473 2.16104 13.1238 3.45139 15.0409C3.96384 15.8545 3.65151 17.0169 2.80196 17.4659C0.753699 18.5341 0.761005 21.6717 2.85577 22.7344C3.70529 23.1829 4.01705 24.3461 3.50509 25.1594C2.2609 27.0762 3.85134 29.8027 6.12054 29.696C7.10744 29.6366 7.99992 30.4785 7.96187 31.4704C7.84303 33.7443 10.5842 35.3322 12.495 34.0918C13.3116 33.5387 14.5165 33.8344 14.9767 34.7077C15.9751 36.6419 18.913 36.773 20.0794 34.9138C19.4414 34.6529 18.9043 34.2038 18.5545 33.5975Z" fill="#196164"/>
<path d="M38.4575 25.5708L35.4576 20.3748C34.939 19.4329 33.6462 19.0858 32.7253 19.6424C32.7253 19.6424 31.8593 20.1423 31.8593 20.1423C31.1343 20.5607 30.7731 21.3679 30.8811 22.1504L22.6332 26.9123C22.5065 26.9856 22.4095 27.1009 22.3591 27.2382L21.4242 29.7802C21.4058 29.7865 20.3233 30.4115 20.3233 30.4115C18.2145 31.7136 20.0154 34.8341 22.1983 33.6591C22.1983 33.6591 23.2808 33.0341 23.2808 33.0341C23.2956 33.021 25.9642 33.4828 25.9642 33.4828C26.1076 33.5077 26.2564 33.4813 26.3832 33.4083L32.8784 29.6583L33.5032 30.7404L30.7973 32.3029C30.0915 32.727 30.7067 33.7845 31.4223 33.3857C31.4223 33.3857 34.6696 31.5107 34.6696 31.5107C34.9687 31.338 35.0709 30.9559 34.8985 30.6568L33.961 29.0332L34.6294 28.6474C35.2522 29.1436 36.1683 29.2128 36.8593 28.8032C36.8593 28.8032 37.7257 28.3027 37.7257 28.3027C38.6799 27.7509 39.0083 26.5254 38.4575 25.5708ZM25.9541 32.2126L23.2591 31.7463L22.5099 30.4487L23.4541 27.8816L31.377 23.3076C31.596 23.6868 33.6039 27.1648 33.8771 27.638L25.9541 32.2126Z" fill="#196164"/>
</svg>
