<svg width="40" height="40" viewBox="0 0 40 40" fill="none" xmlns="http://www.w3.org/2000/svg">
<path d="M25.6256 7.81256C25.0121 7.83601 24.7583 6.94076 25.3125 6.64617L26.936 5.70868C27.6525 5.30958 28.2668 6.36818 27.561 6.79145C27.345 6.88152 25.8498 7.87237 25.6256 7.81256Z" fill="#196164"/>
<path d="M25.6256 7.81256C25.0121 7.83601 24.7583 6.94076 25.3125 6.64617L26.936 5.70868C27.6525 5.30958 28.2668 6.36818 27.561 6.79145C27.345 6.88152 25.8498 7.87237 25.6256 7.81256Z" fill="#196164"/>
<path d="M28.0897 22.2416L20.1693 20.0239C19.6999 19.8925 19.2675 20.3249 19.3989 20.7943L21.6166 28.7147C21.8744 29.6353 23.0282 29.9376 23.7042 29.2615L25.2865 27.6793L27.0543 29.447C27.2983 29.6911 27.6941 29.6911 27.9381 29.447L28.822 28.5631C29.0661 28.3191 29.0661 27.9233 28.822 27.6793L27.0543 25.9115L28.6365 24.3292C29.3126 23.6532 29.0103 22.4994 28.0897 22.2416Z" fill="#196164"/>
<path d="M27.4964 30.2544C27.1765 30.2544 26.8561 30.1323 26.6126 29.8888L25.2863 28.5631L24.1461 29.7033C23.1961 30.7191 21.3443 30.2357 21.0151 28.8829C21.015 28.883 18.797 20.9624 18.797 20.9624C18.5154 20.0609 19.4352 19.1397 20.3376 19.4219C20.3375 19.4219 28.2581 21.6399 28.2581 21.6399C29.6093 21.9696 30.096 23.8209 29.0783 24.771C29.0784 24.771 27.9383 25.9112 27.9383 25.9112L29.2639 27.2375C29.7516 27.7245 29.7516 28.518 29.2639 29.005C28.8227 29.4007 28.1719 30.3254 27.4964 30.2544ZM25.2863 27.0543C25.4462 27.0543 25.6061 27.1154 25.7282 27.2374L27.4964 29.005L28.3801 28.1212L26.6126 26.353C26.3684 26.1089 26.3684 25.7134 26.6126 25.4693L28.1946 23.8872C28.4235 23.6583 28.385 23.391 28.3576 23.2866C28.3301 23.1823 28.2331 22.9308 27.9212 22.8435L20.0006 20.6255L22.2187 28.546C22.3059 28.8579 22.5574 28.955 22.6618 28.9824C22.7667 29.0105 23.0335 29.049 23.2624 28.8195L24.8444 27.2374C24.9665 27.1154 25.1264 27.0543 25.2863 27.0543Z" fill="#196164"/>
<path d="M20 7.5C19.6545 7.5 19.375 7.22046 19.375 6.875V5C19.375 4.65454 19.6545 4.375 20 4.375C20.3455 4.375 20.625 4.65454 20.625 5V6.875C20.625 7.22046 20.3455 7.5 20 7.5Z" fill="#196164"/>
<path d="M15.6245 7.8124C15.4081 7.8759 13.8971 6.87707 13.689 6.79132C12.9843 6.36868 13.5959 5.30901 14.314 5.70854C14.314 5.70852 15.9376 6.64602 15.9376 6.64602C16.4911 6.94038 16.2386 7.83621 15.6245 7.8124Z" fill="#196164"/>
<path d="M36.25 30.625H34.6622C35.2587 29.9607 35.625 29.086 35.625 28.125V10.625C35.625 8.55713 33.9429 6.875 31.875 6.875H29.0073C28.8263 7.47381 28.2856 7.85345 27.7509 8.125H31.875C33.2538 8.125 34.375 9.24622 34.375 10.625V28.125C34.375 29.5038 33.2538 30.625 31.875 30.625H8.12503C6.74624 30.625 5.62503 29.5038 5.62503 28.125V10.625C5.62503 9.24622 6.74624 8.125 8.12503 8.125H13.4987C12.9633 7.85376 12.424 7.47347 12.2428 6.875H8.12503C6.05716 6.875 4.37503 8.55713 4.37503 10.625V28.125C4.37503 29.086 4.74139 29.9607 5.33782 30.625H3.75003C0.454051 30.7262 0.439801 35.5189 3.75008 35.625C3.75003 35.625 36.25 35.625 36.25 35.625C39.5427 35.5252 39.5631 30.7319 36.25 30.625ZM36.25 34.375H23.9584C23.6033 33.8313 23.2149 33.0859 22.456 33.125C22.456 33.125 17.544 33.125 17.544 33.125C16.7807 33.0885 16.3987 33.8297 16.0417 34.375H3.75003C2.11119 34.3351 2.09418 31.9198 3.75007 31.875C3.75003 31.875 36.25 31.875 36.25 31.875C37.8863 31.914 37.908 34.3298 36.25 34.375Z" fill="#196164"/>
<path d="M15.6245 7.8124C15.4081 7.8759 13.8971 6.87707 13.689 6.79132C12.9843 6.36868 13.5959 5.30901 14.314 5.70854C14.314 5.70852 15.9376 6.64602 15.9376 6.64602C16.4911 6.94038 16.2386 7.83621 15.6245 7.8124Z" fill="#196164"/>
<path d="M28.125 9.65869H26.25C25.429 9.67211 25.4281 10.8952 26.2501 10.9087H28.125C28.9461 10.8953 28.947 9.67223 28.125 9.65869Z" fill="#196164"/>
<path d="M27.5611 13.7768L25.9375 12.8393C25.2202 12.4393 24.6072 13.4993 25.3126 13.9221C25.5285 14.0122 27.0237 15.003 27.248 14.9432C27.8615 14.9666 28.1153 14.0714 27.5611 13.7768Z" fill="#196164"/>
<path d="M19.6876 7.5H22.5001C23.3197 7.48832 23.3228 6.26279 22.5001 6.25H19.6876C16.7966 6.34249 16.7973 10.5331 19.6876 10.625H20.9376C21.4546 10.625 21.8751 11.0455 21.8751 11.5625C21.8751 12.0795 21.4546 12.5 20.9376 12.5H18.1251C17.3045 12.5129 17.3029 13.7366 18.1251 13.75H19.3751V15C19.3751 15.3455 19.6546 15.625 20.0001 15.625C20.3455 15.625 20.6251 15.3455 20.6251 15V13.75C23.718 13.983 24.0293 9.52713 20.9375 9.37497L19.6876 9.375C18.4565 9.35414 18.4552 7.52133 19.6876 7.5Z" fill="#196164"/>
<path d="M15.625 10.2837C15.625 9.93824 15.3455 9.65869 15 9.65869H13.125C12.7795 9.65869 12.5 9.93824 12.5 10.2837C12.5 10.6291 12.7795 10.9087 13.125 10.9087H15C15.3455 10.9087 15.625 10.6291 15.625 10.2837Z" fill="#196164"/>
<path d="M31.25 9.375H29.7548C30.4755 10.5632 29.5198 12.1966 28.125 12.1588C28.125 12.1588 27.259 12.1588 27.259 12.1588L28.186 12.6941C29.8331 13.6324 29.1401 16.2055 27.2479 16.1932C26.5465 16.2605 25.2845 15.2974 24.6875 15.0049C24.1496 14.6984 23.796 14.1294 23.7553 13.5132C23.3066 14.1592 22.6498 14.6502 21.875 14.87C21.9428 17.4341 18.2226 17.5602 18.125 15C17.7082 15 17.3266 14.8587 17.0149 14.6278C16.7738 14.9713 15.2971 15.7064 14.939 15.9424C14.6545 16.1066 14.3305 16.1932 14.0021 16.1932C12.1107 16.2057 11.4163 13.632 13.064 12.6947C13.064 12.6947 13.9914 12.1588 13.9914 12.1588H13.125C11.7302 12.1968 10.7743 10.5629 11.4952 9.37501H8.75C7.71606 9.37501 6.875 10.2161 6.875 11.25V27.5C6.875 28.5339 7.71606 29.375 8.75 29.375H31.25C32.2839 29.375 33.125 28.5339 33.125 27.5V11.25C33.125 10.2161 32.2839 9.375 31.25 9.375ZM24.0625 25.625H15.9375C10.5577 25.4217 10.5549 17.7042 15.9375 17.5C15.9375 17.5 24.0625 17.5 24.0625 17.5C29.4423 17.7033 29.445 25.4208 24.0625 25.625Z" fill="#196164"/>
<path d="M15.3125 12.8394L13.689 13.7769C12.9827 14.2013 13.5989 15.2583 14.314 14.8596C14.314 14.8597 15.9375 13.9222 15.9375 13.9222C16.6428 13.4998 16.0293 12.4391 15.3125 12.8394Z" fill="#196164"/>
<path d="M29.264 27.2376L27.9384 25.9113L29.0785 24.7712C30.0949 23.8213 29.6107 21.9693 28.2581 21.6401C28.2582 21.6401 20.3377 19.422 20.3377 19.422C19.4367 19.1413 18.5141 20.0596 18.7972 20.9626C18.7971 20.9626 21.0151 28.8831 21.0151 28.8831C21.3449 30.2346 23.1959 30.7205 24.1463 29.7034C24.1462 29.7034 25.2864 28.5633 25.2864 28.5633L26.6127 29.889C26.8562 30.1325 27.1766 30.2546 27.4965 30.2546C28.1709 30.326 28.8236 29.4004 29.2641 29.0052C29.7517 28.5181 29.7517 27.7246 29.264 27.2376Z" fill="#C4F500"/>
</svg>
