<svg width="40" height="40" viewBox="0 0 40 40" fill="none" xmlns="http://www.w3.org/2000/svg">
<path d="M23.0589 13.5746C23.7258 13.5746 24.2914 13.7304 24.761 13.991V8.83203C24.761 8.14165 24.2014 7.58203 23.511 7.58203H22.261C21.5706 7.58203 21.011 8.14165 21.011 8.83203V14.2125C21.5379 13.8177 22.2202 13.5746 23.0589 13.5746Z" fill="#196164"/>
<path d="M17.9126 15.5693C18.123 15.5693 18.3202 15.5892 18.511 15.6182V11.957C18.511 11.2667 17.9514 10.707 17.261 10.707H16.011C15.3206 10.707 14.761 11.2667 14.761 11.957V17.582C14.761 17.6242 14.7693 17.6641 14.7734 17.7051C15.2149 16.5122 16.2599 15.5693 17.9126 15.5693Z" fill="#196164"/>
<path d="M33.511 1.33203H11.011C9.32196 1.33203 7.89312 2.45554 7.42532 3.99362C5.88544 4.46039 4.76099 5.8917 4.76099 7.58203V11.957H4.13599C3.10205 11.957 2.26099 12.7981 2.26099 13.832C2.26099 14.866 3.10205 15.707 4.13599 15.707H4.76099V23.6862H4.13599C3.10205 23.6862 2.26099 24.5272 2.26099 25.5612C2.26099 26.5951 3.10205 27.4362 4.13599 27.4362H4.76099V32.582C4.76099 34.6499 6.44312 36.332 8.51099 36.332H22.886C20.9717 36.332 19.1293 35.8915 17.4555 35.082H8.51099C7.1325 35.082 6.01099 33.9608 6.01099 32.582V29.0725L7.04736 29.5907C8.23535 30.233 9.80488 29.2656 9.76096 27.9134C9.76099 27.9135 9.76099 23.2089 9.76099 23.2089C9.80407 21.8579 8.23725 20.8882 7.04734 21.5317C7.04736 21.5316 6.01099 22.0498 6.01099 22.0498V17.3434L7.04736 17.8616C8.23535 18.5039 9.80488 17.5365 9.76096 16.1843C9.76099 16.1843 9.76099 11.4797 9.76099 11.4797C9.80407 10.1288 8.23725 9.15904 7.04734 9.80254C7.04736 9.80249 6.01099 10.3207 6.01099 10.3207V7.58203C6.01099 6.20325 7.1325 5.08203 8.51099 5.08203H31.011C32.3895 5.08203 33.511 6.20325 33.511 7.58203V17.2479C35.6996 20.7808 36.0012 25.2256 34.2242 29.0664C34.8687 29.45 36.6486 30.3289 37.1769 30.832C37.2267 30.5887 37.261 30.3399 37.261 30.082V5.08203C37.261 3.01416 35.5789 1.33203 33.511 1.33203ZM4.13599 14.457C3.31451 14.4424 3.31484 13.2215 4.13601 13.207C4.13599 13.207 4.76099 13.207 4.76099 13.207V14.457H4.13599ZM4.13599 26.1862C3.31451 26.1715 3.31484 24.9506 4.13601 24.9362C4.13599 24.9362 4.76099 24.9362 4.76099 24.9362V26.1862H4.13599Z" fill="#196164"/>
<path d="M28.1231 35.1748C26.484 35.9347 24.6963 36.332 22.886 36.332H28.7659L28.1231 35.1748Z" fill="#196164"/>
<path d="M37.6978 34.2123C37.5254 32.9812 36.8034 31.9289 35.717 31.3259L32.55 29.5664C36.9812 22.2791 31.5841 12.4975 22.8857 12.5821C12.9429 12.5414 7.87997 24.7688 14.931 31.7868C18.4221 35.4012 24.3681 36.1245 28.6222 33.4994L30.3794 36.6628C32.4822 40.4243 38.2827 38.487 37.6978 34.2123ZM28.631 29.5772C25.607 32.729 20.1646 32.7295 17.1406 29.5771C12.0441 24.5458 15.7278 15.6468 22.886 15.7071C30.0439 15.6475 33.7281 24.546 28.631 29.5772Z" fill="#C4F500"/>
</svg>
