<svg width="14" height="14" viewBox="0 0 14 14" fill="none" xmlns="http://www.w3.org/2000/svg">
<path d="M14 3C14 4.65625 12.6562 6 11 6C10.1875 6 9.4375 5.6875 8.90625 5.1875L5.96875 6.65625C5.96875 6.75 5.96875 6.875 5.96875 7C5.96875 7.125 5.96875 7.25 5.96875 7.375L8.90625 8.84375C9.4375 8.34375 10.1875 8 11 8C12.6562 8 14 9.34375 14 11C14 12.6562 12.6562 14 11 14C9.3125 14 8 12.6562 8 11C8 10.875 8 10.75 8 10.6562L5.0625 9.1875C4.53125 9.6875 3.78125 10 3 10C1.3125 10 0 8.65625 0 7C0 5.34375 1.3125 4 3 4C3.78125 4 4.53125 4.34375 5.0625 4.84375L8 3.375C8 3.25 8 3.125 8 3C8 1.34375 9.3125 0 11 0C12.6562 0 14 1.34375 14 3ZM2.96875 8C3.53125 8 3.96875 7.5625 3.96875 7C3.96875 6.46875 3.53125 6 2.96875 6C2.4375 6 1.96875 6.46875 1.96875 7C1.96875 7.5625 2.4375 8 2.96875 8ZM11 2C10.4375 2 10 2.46875 10 3C10 3.5625 10.4375 4 11 4C11.5312 4 12 3.5625 12 3C12 2.46875 11.5312 2 11 2ZM11 12C11.5312 12 12 11.5625 12 11C12 10.4688 11.5312 10 11 10C10.4375 10 10 10.4688 10 11C10 11.5625 10.4375 12 11 12Z" fill="#19352D"/>
</svg>
