<svg width="40" height="40" viewBox="0 0 40 40" fill="none" xmlns="http://www.w3.org/2000/svg">
<path d="M25.7082 20.9799C24.7929 10.6362 9.56018 10.7933 9.08318 21.2791C9.21265 22.7576 9.04377 24.2178 8.318 25.6009C7.60751 27.2326 10.9661 27.6343 12.022 27.6181C12.04 27.7451 12.0482 27.999 11.968 28.4592C11.7187 30.4808 14.047 30.5303 15.4769 30.1981C15.7427 30.6156 15.8596 31.1032 15.7931 31.5579C15.6998 32.1088 16.1664 32.6476 16.726 32.634L22.3058 32.634C22.6491 32.634 22.965 32.4497 23.1307 32.1524C23.2952 31.8564 23.2863 31.4926 23.1072 31.2039C22.3852 30.0376 22.3183 28.6801 22.9183 27.4625C24.8162 25.8188 25.8318 23.4635 25.7082 20.9799Z" fill="#196164"/>
<path d="M20.3579 33.799C20.1257 33.5577 19.7055 33.5575 19.4733 33.799L17.5987 35.6736C17.0236 36.2532 17.9019 37.1333 18.4825 36.5573L19.2906 35.7492V37.9905C19.2906 38.3359 19.5705 38.6155 19.9156 38.6155C20.2608 38.6155 20.5406 38.3359 20.5406 37.9905V35.7492L21.3487 36.5574C21.929 37.1328 22.8081 36.2538 22.2325 35.6735L20.3579 33.799Z" fill="#196164"/>
<path d="M10.1105 29.4308C10.1189 29.3342 7.31481 29.4012 7.22009 29.3826C6.39903 29.3962 6.39829 30.619 7.22012 30.6326C7.2201 30.6326 8.36309 30.6326 8.36309 30.6326L6.7782 32.2177C6.53406 32.4618 6.53406 32.8574 6.7782 33.1015C7.02233 33.3456 7.41785 33.3456 7.66198 33.1015L9.24676 31.5165V32.6596C9.26043 33.4805 10.4829 33.4816 10.4968 32.6596V30.0076C10.4984 29.7606 10.3403 29.523 10.1105 29.4308Z" fill="#196164"/>
<path d="M6.34025 19.6725C6.41088 19.6097 4.38647 17.6747 4.33036 17.5944C3.75044 17.0191 2.87076 17.8977 3.44657 18.4782C3.44653 18.4782 4.25464 19.2863 4.25464 19.2863H2.01343C1.66827 19.2863 1.38843 19.5658 1.38843 19.9113C1.38843 20.2567 1.66827 20.5363 2.01343 20.5363H4.25464L3.44653 21.3444C2.87144 21.9243 3.74973 22.8039 4.33035 22.2281C4.33032 22.2282 6.20478 20.3537 6.20478 20.3537C6.38098 20.1805 6.43734 19.9003 6.34025 19.6725Z" fill="#196164"/>
<path d="M9.99712 6.59094C9.65197 6.59094 9.37212 6.87049 9.37212 7.21594V8.35864L7.78735 6.77405C7.54321 6.52991 7.1477 6.52991 6.90356 6.77405C6.65942 7.01819 6.65942 7.4137 6.90356 7.65784L8.48822 9.24231H7.34546C6.52508 9.25555 6.52311 10.4787 7.34548 10.4923C7.34546 10.4923 9.99712 10.4923 9.99712 10.4923C10.2441 10.4939 10.4816 10.3359 10.5739 10.1061C10.6692 10.1081 10.6044 7.31501 10.6221 7.21597C10.6221 6.87049 10.3423 6.59094 9.99712 6.59094Z" fill="#196164"/>
<path d="M21.5264 3.44214L20.7183 4.25025V2.00903C20.7183 1.66358 20.4384 1.38403 20.0933 1.38403C19.7481 1.38403 19.4683 1.66358 19.4683 2.00903V4.25025L18.6602 3.44214C18.0811 2.86721 17.2001 3.74513 17.7764 4.32595L19.651 6.20051C19.8835 6.44228 20.3031 6.4425 20.5356 6.2005L22.4102 4.32593C22.9847 3.74639 22.1075 2.86608 21.5264 3.44214Z" fill="#196164"/>
<path d="M33.2308 6.89917C32.9866 6.65503 32.5911 6.65503 32.347 6.89917L30.7622 8.48414V7.34106C30.7491 6.52076 29.5258 6.51866 29.5122 7.34109C29.5122 7.34106 29.5122 9.99304 29.5122 9.99304C29.5106 10.24 29.6687 10.4776 29.8985 10.5699C29.8943 10.6649 32.6914 10.6004 32.7889 10.6181C33.6094 10.6043 33.6112 9.38199 32.7889 9.36804H31.6459L33.2308 7.78296C33.4749 7.53882 33.4749 7.14331 33.2308 6.89917Z" fill="#196164"/>
<path d="M37.9955 19.4639H35.7543L36.5624 18.6558C37.1374 18.0769 36.2593 17.1956 35.6786 17.772C35.6786 17.772 33.8041 19.6465 33.8041 19.6465C33.6279 19.8198 33.5716 20.0998 33.6687 20.3277C33.6001 20.3938 35.621 22.3232 35.6785 22.4058C36.2583 22.9805 37.1383 22.103 36.5623 21.522C36.5624 21.522 35.7543 20.7139 35.7543 20.7139H37.9955C38.8169 20.7003 38.817 19.4775 37.9955 19.4639Z" fill="#196164"/>
<path d="M33.289 30.1329C33.289 29.7874 33.0092 29.5079 32.664 29.5079C32.5573 29.5263 29.7792 29.4593 29.7737 29.556C29.5439 29.6483 29.3857 29.8858 29.3873 30.1329V32.7848C29.401 33.6054 30.6234 33.6072 30.6373 32.7848V31.6418L32.2221 33.2267C32.4663 33.4709 32.8618 33.4709 33.1059 33.2267C33.35 32.9826 33.35 32.5871 33.1059 32.343L31.521 30.7579H32.664C33.0092 30.7579 33.289 30.4783 33.289 30.1329Z" fill="#196164"/>
<path d="M31.3332 16.605C30.4183 6.26117 15.1845 6.41958 14.7081 16.9042C14.8376 18.3827 14.6687 19.8429 13.943 21.226C13.2329 22.8568 16.5891 23.2612 17.6469 23.2432C17.665 23.3702 17.6732 23.6241 17.5929 24.0843C17.3439 26.1058 19.6713 26.1553 21.1018 25.8232C21.3677 26.2406 21.4845 26.7283 21.418 27.183C21.3247 27.7339 21.7913 28.2727 22.3509 28.2591L27.9308 28.2591C28.2741 28.2591 28.5899 28.0748 28.7557 27.7775C28.9201 27.4815 28.9113 27.1177 28.7322 26.829C28.0101 25.6626 27.9433 24.3052 28.5433 23.0876C30.4411 21.4439 31.4568 19.0885 31.3332 16.605Z" fill="#C4F500"/>
</svg>
