<svg width="40" height="40" viewBox="0 0 40 40" fill="none" xmlns="http://www.w3.org/2000/svg">
<path d="M23.9353 11.2498H7.68534C6.86917 11.2376 6.85949 10.0139 7.68537 9.99976H23.9353C24.7515 10.0119 24.7612 11.2356 23.9353 11.2498Z" fill="#196164"/>
<path d="M15.8103 15.6248H7.68532C6.86571 15.6116 6.86229 14.3886 7.68535 14.3748H15.8103C16.6293 14.3877 16.6338 15.6109 15.8103 15.6248Z" fill="#196164"/>
<path d="M15.8103 19.9998H7.68532C6.86571 19.9866 6.86229 18.7636 7.68535 18.7498H15.8103C16.6293 18.7627 16.6338 19.9859 15.8103 19.9998Z" fill="#196164"/>
<path d="M25.0021 31.4329C24.6452 31.0891 24.2084 31.2711 23.9353 31.616V29.3748C23.9353 29.0293 23.6554 28.7498 23.3103 28.7498C22.9651 28.7498 22.6853 29.0293 22.6853 29.3748V31.616L22.5021 31.4329C21.9226 30.8578 21.0424 31.736 21.6184 32.3167C21.6184 32.3166 22.8679 33.5662 22.8679 33.5662C23.1004 33.808 23.5201 33.8082 23.7526 33.5662C23.7526 33.5662 25.0021 32.3167 25.0021 32.3167C25.2463 32.0725 25.2463 31.677 25.0021 31.4329Z" fill="#196164"/>
<path d="M15.1853 23.1247H12.944L13.1272 22.9416C13.7023 22.3623 12.8239 21.4817 12.2433 22.0579C12.2434 22.0578 10.9939 23.3073 10.9939 23.3073C10.7524 23.5395 10.7523 23.96 10.9939 24.1921C10.9939 24.1921 12.2434 25.4416 12.2434 25.4416C12.3654 25.5637 12.5253 25.6247 12.6853 25.6247C13.2196 25.6431 13.5259 24.9295 13.1271 24.5578C13.1272 24.5578 12.9441 24.3747 12.9441 24.3747H15.1853C16.0067 24.3611 16.0067 23.1383 15.1853 23.1247Z" fill="#196164"/>
<path d="M30.1853 11.2498V7.49976C30.1853 5.43189 28.5032 3.74976 26.4353 3.74976H5.1853C3.11743 3.74976 1.4353 5.43189 1.4353 7.49976V32.4998C1.4353 34.5676 3.11743 36.2498 5.1853 36.2498H26.4353C28.5032 36.2498 30.1853 34.5676 30.1853 32.4998V28.7498H28.9353V32.4998C28.9353 33.8785 27.8138 34.9998 26.4353 34.9998H7.07747C6.3125 34.4301 5.8103 33.5268 5.8103 32.4998V7.49976C5.8103 6.47269 6.3125 5.56941 7.07747 4.99976H26.4353C27.8138 4.99976 28.9353 6.12097 28.9353 7.49976V11.2498H30.1853Z" fill="#196164"/>
<path d="M30.4978 12.4998H21.1228C18.8828 12.4998 17.0603 14.3223 17.0603 16.5623V23.4373C17.0603 25.6772 18.8828 27.4998 21.1228 27.4998H30.4978C32.7378 27.4998 34.5603 25.6772 34.5603 23.4373V16.5623C34.5603 14.3223 32.7378 12.4998 30.4978 12.4998ZM29.0787 21.7393L25.4536 23.7028C24.2648 24.3988 22.6394 23.4321 22.6853 22.0541C22.6853 22.0542 22.6853 18.1266 22.6853 18.1266C22.64 16.7497 24.2636 15.7811 25.4533 16.4781C25.4532 16.478 29.0787 18.4415 29.0787 18.4415C30.369 19.0888 30.3706 21.0919 29.0787 21.7393Z" fill="#196164"/>
<path d="M38.1572 30.0154L36.6787 28.5366L37.9503 27.2653C39.0829 26.2056 38.5433 24.1417 37.0356 23.7742C37.0356 23.7742 28.2043 21.3011 28.2043 21.3011C27.1993 20.9881 26.1712 22.012 26.4867 23.0188C26.4867 23.0188 28.9594 31.8501 28.9594 31.8501C29.3272 33.3564 31.3921 33.8996 32.4509 32.7647C32.4509 32.7647 33.7225 31.4935 33.7225 31.4935L35.2006 32.9716C35.4721 33.2432 35.8291 33.3793 36.1863 33.3793C36.9386 33.4589 37.6659 32.427 38.1572 31.9862C38.7006 31.4431 38.7006 30.5584 38.1572 30.0154Z" fill="#C4F500"/>
</svg>
