<svg width="40" height="40" viewBox="0 0 40 40" fill="none" xmlns="http://www.w3.org/2000/svg">
<path d="M26.2451 23.749H13.7451C12.3666 23.749 11.2451 24.8702 11.2451 26.249V28.749C11.2451 30.1278 12.3666 31.249 13.7451 31.249H26.2451C27.6236 31.249 28.7451 30.1278 28.7451 28.749V26.249C28.7451 24.8702 27.6236 23.749 26.2451 23.749ZM23.7451 28.749H19.9951C19.1747 28.7356 19.1728 27.5128 19.9951 27.499H23.7451C24.5655 27.5124 24.5675 28.7353 23.7451 28.749ZM25.6232 28.749C24.8023 28.7368 24.795 27.5142 25.6171 27.499C26.4455 27.5103 26.4464 28.7342 25.6232 28.749Z" fill="#196164"/>
<path d="M26.2451 11.249H13.7451C12.3666 11.249 11.2451 12.3702 11.2451 13.749V16.249C11.2451 17.6278 12.3666 18.749 13.7451 18.749H26.2451C27.6236 18.749 28.7451 17.6278 28.7451 16.249V13.749C28.7451 12.3702 27.6236 11.249 26.2451 11.249ZM23.7451 16.249H19.9951C19.1747 16.2356 19.1728 15.0128 19.9951 14.999H23.7451C24.5655 15.0124 24.5675 16.2353 23.7451 16.249ZM25.6232 16.249C24.8023 16.2368 24.795 15.0142 25.6171 14.999C26.4455 15.0103 26.4464 16.2342 25.6232 16.249Z" fill="#196164"/>
<path d="M26.245 17.4991H13.745C12.3643 17.4991 11.245 18.6184 11.245 19.9991V22.4991C11.245 23.8799 12.3643 24.9991 13.745 24.9991H26.245C27.6257 24.9991 28.745 23.8799 28.745 22.4991V19.9991C28.745 18.6184 27.6257 17.4991 26.245 17.4991Z" fill="#C4F500"/>
<path d="M23.7452 23.1241H19.9952C19.1748 23.1107 19.1728 21.8879 19.9952 21.8741H23.7452C24.5656 21.8875 24.5675 23.1104 23.7452 23.1241Z" fill="#196164"/>
<path d="M25.6232 23.1241C24.8024 23.112 24.795 21.8894 25.6171 21.8741C26.4455 21.8854 26.4464 23.1093 25.6232 23.1241Z" fill="#196164"/>
<path d="M21.8702 9.99915H18.1202C17.2998 9.98575 17.2978 8.7629 18.1202 8.74915H21.8702C22.6906 8.76255 22.6925 9.98539 21.8702 9.99915Z" fill="#196164"/>
<path d="M18.1202 36.8741H12.4952C11.6753 36.8609 11.6723 35.638 12.4952 35.6241C12.4952 35.6241 18.1202 35.6241 18.1202 35.6241C18.94 35.6374 18.943 36.8603 18.1202 36.8741Z" fill="#196164"/>
<path d="M36.1771 10.7468C36.0428 10.264 35.7288 9.86301 35.293 9.61704L20.9177 1.49142C20.3489 1.17038 19.6424 1.16977 19.0729 1.49204L4.69824 9.61643C2.58237 10.8932 4.34323 14.0387 6.54303 12.8812C6.54303 12.8812 7.49518 12.343 7.49518 12.343V31.8741C7.49518 32.9081 8.33624 33.7491 9.37018 33.7491H17.2178C17.4782 33.4613 17.7782 33.2081 18.1202 33.0106V32.4991H9.37018C9.02563 32.4991 8.74518 32.219 8.74518 31.8741V11.6365L19.9955 5.27744L31.2452 11.6363V31.8741C31.2452 32.219 30.9647 32.4991 30.6202 32.4991H21.8702V33.0124C22.2082 33.2087 22.5066 33.4612 22.7665 33.7491H30.6202C31.6541 33.7491 32.4952 32.9081 32.4952 31.8741V12.3428L33.4476 12.8812C34.8501 13.7176 36.6523 12.3094 36.1771 10.7468Z" fill="#196164"/>
<path d="M27.4952 35.6241H22.4065C22.1792 34.7498 21.4944 34.0652 20.6202 33.8379V30.6241C20.6202 30.2787 20.3404 29.9991 19.9952 29.9991C19.65 29.9991 19.3702 30.2787 19.3702 30.6241V33.8379C16.5708 34.5867 17.0725 38.7101 19.9953 38.7491C21.1567 38.7491 22.127 37.9495 22.4065 36.8741H27.4952C28.3164 36.8606 28.3169 35.6378 27.4952 35.6241Z" fill="#196164"/>
</svg>
