<svg width="40" height="40" viewBox="0 0 40 40" fill="none" xmlns="http://www.w3.org/2000/svg">
<path d="M31.875 7.30298H26.5313C26.9 7.64672 27.1688 8.07797 27.3313 8.55298H31.875C33.2563 8.55298 34.375 9.67172 34.375 11.053V28.553C34.375 29.9342 33.2563 31.053 31.875 31.053H8.125C6.74377 31.053 5.625 29.9342 5.625 28.553V11.053C5.625 9.67172 6.74377 8.55298 8.125 8.55298H12.675C12.8313 8.07797 13.1063 7.64672 13.475 7.30298H8.125C6.05625 7.30298 4.375 8.98423 4.375 11.053V28.553C4.375 30.6217 6.05625 32.303 8.125 32.303H31.875C33.9438 32.303 35.625 30.6217 35.625 28.553V11.053C35.625 8.98423 33.9438 7.30298 31.875 7.30298Z" fill="#196164"/>
<path d="M33.125 11.678V27.928C33.125 28.9592 32.2813 29.803 31.25 29.803H8.75C7.71877 29.803 6.875 28.9592 6.875 27.928V11.678C6.875 10.6405 7.71877 9.80298 8.75 9.80298H12.5V13.3217C12.5 14.2467 12.9 15.1217 13.6 15.7155L17.975 19.453C18.5375 19.9342 19.2625 20.1967 20 20.1967C20.7375 20.1967 21.4625 19.9342 22.0375 19.4467L26.3813 15.7342C27.0938 15.1405 27.5 14.2592 27.5 13.3217V9.80298H31.25C32.2813 9.80298 33.125 10.6405 33.125 11.678Z" fill="#196164"/>
<path d="M31.3231 24.2562L27.0714 19.3752C26.5965 18.8308 25.6615 18.8308 25.1866 19.3752L20.9352 24.2562C20.2222 25.0148 20.836 26.366 21.8773 26.3271C21.8773 26.3271 23.004 26.3271 23.004 26.3271V29.2452C23.004 29.9343 23.5646 30.4952 24.254 30.4952H28.004C28.6934 30.4952 29.254 29.9343 29.254 29.2452V26.3271H30.3807C31.4214 26.3655 32.0357 25.0156 31.3231 24.2562Z" fill="#C4F500"/>
<path d="M14.8134 19.3752C14.3386 18.8308 13.4035 18.8308 12.9287 19.3752L8.67695 24.2562C7.96462 25.0154 8.57839 26.3657 9.61938 26.3271C9.61934 26.3271 10.746 26.3271 10.746 26.3271V29.2452C10.746 29.9343 11.3067 30.4952 11.996 30.4952H15.746C16.4354 30.4952 16.996 29.9343 16.996 29.2452V26.3271H18.1228C19.1637 26.3656 19.7782 25.0154 19.0651 24.2562C19.0651 24.2562 14.8134 19.3752 14.8134 19.3752Z" fill="#C4F500"/>
<path d="M25.5875 8.12824L21.2216 4.3941C20.513 3.79779 19.4861 3.79718 18.775 4.39715L14.4077 8.1325C13.9896 8.49749 13.75 9.02179 13.75 9.57171V13.3217C13.75 13.8814 13.992 14.4075 14.4125 14.7652L18.7784 18.4993C19.488 19.0966 20.5152 19.0946 21.225 18.4963L25.5811 14.7707C26.0062 14.4173 26.25 13.8887 26.25 13.3217V9.57171C26.25 9.01385 26.0086 8.48773 25.5875 8.12824ZM24.7751 13.8155L20.416 17.5435C20.1755 17.7468 19.8254 17.7468 19.5874 17.5466L15.2237 13.8143C15.0836 13.6952 15 13.5109 15 13.3217V11.5177C20.9123 16.4959 19.1537 16.3899 25 11.5177V13.3217C25 13.5164 24.9204 13.6946 24.7751 13.8155Z" fill="#196164"/>
<path d="M36.25 31.0525H3.75002C0.453493 31.1541 0.440362 35.9463 3.75007 36.0525H36.25C39.5443 35.9518 39.5616 31.1592 36.25 31.0525ZM36.25 34.8025H23.9583C23.6033 34.2588 23.2149 33.5135 22.456 33.5526L17.544 33.5526C16.7808 33.5161 16.3987 34.2572 16.0417 34.8025H3.75002C2.11111 34.7628 2.09414 32.3471 3.75006 32.3025H36.25C37.8864 32.3413 37.908 34.7575 36.25 34.8025Z" fill="#196164"/>
</svg>
